<svg data-v-423bf9ae="" xmlns="http://www.w3.org/2000/svg" viewBox="0 0 424 90" class="iconLeftSlogan"><!----><!----><!----><g data-v-423bf9ae="" id="7e3c109c-24ae-4d6a-af89-49008fb53b2d" fill="#DDBA2E" transform="matrix(4.501125307082416,0,0,4.501125307082416,105.09376870322865,-32.003001057483885)"><path d="M2.50 7.11L2.50 11.71L6.32 7.11L7.96 7.11L3.82 11.81L8.41 17.09L6.73 17.09L2.50 12.19L2.50 17.09L1.09 17.09L1.09 17.09Q1.17 16.68 1.18 15.90L1.18 15.90L1.18 15.90Q1.20 15.13 1.20 14.12L1.20 14.12L1.20 10.08L1.20 10.08Q1.20 9.07 1.18 8.30L1.18 8.30L1.18 8.30Q1.17 7.52 1.09 7.11L1.09 7.11L2.50 7.11ZM10.87 13.64L10.87 13.64L10.87 13.64Q10.87 14.23 11.01 14.70L11.01 14.70L11.01 14.70Q11.16 15.18 11.42 15.50L11.42 15.50L11.42 15.50Q11.68 15.83 12.04 16.00L12.04 16.00L12.04 16.00Q12.41 16.17 12.85 16.17L12.85 16.17L12.85 16.17Q13.26 16.17 13.62 16.00L13.62 16.00L13.62 16.00Q13.99 15.83 14.26 15.50L14.26 15.50L14.26 15.50Q14.53 15.18 14.68 14.70L14.68 14.70L14.68 14.70Q14.83 14.23 14.83 13.64L14.83 13.64L14.83 13.64Q14.83 13.04 14.69 12.56L14.69 12.56L14.69 12.56Q14.55 12.09 14.28 11.75L14.28 11.75L14.28 11.75Q14.02 11.42 13.65 11.25L13.65 11.25L13.65 11.25Q13.29 11.07 12.85 11.07L12.85 11.07L12.85 11.07Q12.43 11.07 12.07 11.25L12.07 11.25L12.07 11.25Q11.71 11.42 11.44 11.75L11.44 11.75L11.44 11.75Q11.18 12.09 11.02 12.56L11.02 12.56L11.02 12.56Q10.87 13.04 10.87 13.64ZM9.60 13.64L9.60 13.64L9.60 13.64Q9.60 12.76 9.87 12.08L9.87 12.08L9.87 12.08Q10.14 11.40 10.59 10.93L10.59 10.93L10.59 10.93Q11.04 10.46 11.64 10.22L11.64 10.22L11.64 10.22Q12.24 9.98 12.92 9.98L12.92 9.98L12.92 9.98Q13.62 9.98 14.21 10.22L14.21 10.22L14.21 10.22Q14.79 10.46 15.21 10.93L15.21 10.93L15.21 10.93Q15.63 11.40 15.87 12.08L15.87 12.08L15.87 12.08Q16.10 12.76 16.10 13.64L16.10 13.64L16.10 13.64Q16.10 14.52 15.83 15.20L15.83 15.20L15.83 15.20Q15.57 15.87 15.11 16.33L15.11 16.33L15.11 16.33Q14.66 16.79 14.06 17.02L14.06 17.02L14.06 17.02Q13.46 17.26 12.78 17.26L12.78 17.26L12.78 17.26Q12.08 17.26 11.49 17.02L11.49 17.02L11.49 17.02Q10.91 16.79 10.49 16.33L10.49 16.33L10.49 16.33Q10.07 15.87 9.84 15.20L9.84 15.20L9.84 15.20Q9.60 14.52 9.60 13.64ZM23.21 12.58L23.21 17.09L21.94 17.09L21.94 13.19L21.94 13.19Q21.94 12.56 21.90 12.16L21.90 12.16L21.90 12.16Q21.85 11.77 21.73 11.55L21.73 11.55L21.73 11.55Q21.62 11.33 21.43 11.25L21.43 11.25L21.43 11.25Q21.24 11.18 20.95 11.18L20.95 11.18L20.95 11.18Q20.70 11.18 20.45 11.28L20.45 11.28L20.45 11.28Q20.19 11.38 19.96 11.57L19.96 11.57L19.96 11.57Q19.74 11.76 19.54 12.01L19.54 12.01L19.54 12.01Q19.35 12.27 19.21 12.58L19.21 12.58L19.21 17.09L17.94 17.09L17.94 12.89L17.94 12.89Q17.94 11.87 17.83 11.17L17.83 11.17L17.83 11.17Q17.71 10.47 17.60 10.12L17.60 10.12L18.83 10.12L18.83 10.12Q18.91 10.34 18.96 10.63L18.96 10.63L18.96 10.63Q19.02 10.93 19.05 11.18L19.05 11.18L19.05 11.18Q19.37 10.81 19.65 10.58L19.65 10.58L19.65 10.58Q19.94 10.35 20.22 10.22L20.22 10.22L20.22 10.22Q20.51 10.08 20.79 10.03L20.79 10.03L20.79 10.03Q21.07 9.98 21.36 9.98L21.36 9.98L21.36 9.98Q21.70 9.98 21.97 10.08L21.97 10.08L21.97 10.08Q22.24 10.17 22.45 10.33L22.45 10.33L22.45 10.33Q22.66 10.49 22.81 10.69L22.81 10.69L22.81 10.69Q22.96 10.90 23.04 11.13L23.04 11.13L23.04 11.13Q23.37 10.78 23.67 10.56L23.67 10.56L23.67 10.56Q23.97 10.34 24.25 10.21L24.25 10.21L24.25 10.21Q24.54 10.08 24.82 10.03L24.82 10.03L24.82 10.03Q25.09 9.98 25.36 9.98L25.36 9.98L25.36 9.98Q25.88 9.98 26.24 10.15L26.24 10.15L26.24 10.15Q26.59 10.32 26.81 10.64L26.81 10.64L26.81 10.64Q27.02 10.97 27.11 11.46L27.11 11.46L27.11 11.46Q27.21 11.94 27.21 12.58L27.21 12.58L27.21 17.09L25.94 17.09L25.94 13.33L25.94 13.33Q25.94 12.67 25.89 12.25L25.89 12.25L25.89 12.25Q25.85 11.83 25.73 11.59L25.73 11.59L25.73 11.59Q25.62 11.35 25.43 11.27L25.43 11.27L25.43 11.27Q25.24 11.18 24.95 11.18L24.95 11.18L24.95 11.18Q24.70 11.18 24.45 11.28L24.45 11.28L24.45 11.28Q24.21 11.38 23.98 11.56L23.98 11.56L23.98 11.56Q23.75 11.74 23.55 12.00L23.55 12.00L23.55 12.00Q23.36 12.26 23.21 12.58L23.21 12.58ZM30.59 13.16L30.59 15.31L30.59 15.31Q30.94 15.56 31.20 15.72L31.20 15.72L31.20 15.72Q31.45 15.88 31.66 15.97L31.66 15.97L31.66 15.97Q31.88 16.06 32.07 16.10L32.07 16.10L32.07 16.10Q32.27 16.13 32.50 16.13L32.50 16.13L32.50 16.13Q32.87 16.13 33.20 15.96L33.20 15.96L33.20 15.96Q33.53 15.79 33.79 15.47L33.79 15.47L33.79 15.47Q34.04 15.14 34.20 14.68L34.20 14.68L34.20 14.68Q34.35 14.22 34.35 13.64L34.35 13.64L34.35 13.64Q34.35 13.07 34.24 12.61L34.24 12.61L34.24 12.61Q34.14 12.15 33.93 11.82L33.93 11.82L33.93 11.82Q33.73 11.50 33.44 11.32L33.44 11.32L33.44 11.32Q33.15 11.14 32.78 11.14L32.78 11.14L32.78 11.14Q32.48 11.14 32.18 11.27L32.18 11.27L32.18 11.27Q31.87 11.40 31.58 11.66L31.58 11.66L31.58 11.66Q31.29 11.91 31.04 12.29L31.04 12.29L31.04 12.29Q30.78 12.67 30.59 13.16L30.59 13.16ZM28.98 10.12L30.21 10.12L30.21 10.12Q30.29 10.29 30.37 10.62L30.37 10.62L30.37 10.62Q30.44 10.94 30.49 11.42L30.49 11.42L30.49 11.42Q30.73 11.10 31.01 10.83L31.01 10.83L31.01 10.83Q31.29 10.57 31.61 10.38L31.61 10.38L31.61 10.38Q31.93 10.19 32.28 10.09L32.28 10.09L32.28 10.09Q32.63 9.98 33.02 9.98L33.02 9.98L33.02 9.98Q33.60 9.98 34.08 10.24L34.08 10.24L34.08 10.24Q34.56 10.49 34.90 10.95L34.90 10.95L34.90 10.95Q35.24 11.42 35.43 12.05L35.43 12.05L35.43 12.05Q35.62 12.68 35.62 13.43L35.62 13.43L35.62 13.43Q35.62 14.31 35.37 15.02L35.37 15.02L35.37 15.02Q35.12 15.72 34.70 16.22L34.70 16.22L34.70 16.22Q34.28 16.72 33.71 16.99L33.71 16.99L33.71 16.99Q33.15 17.26 32.50 17.26L32.50 17.26L32.50 17.26Q32.23 17.26 31.99 17.21L31.99 17.21L31.99 17.21Q31.75 17.15 31.52 17.06L31.52 17.06L31.52 17.06Q31.29 16.96 31.06 16.82L31.06 16.82L31.06 16.82Q30.84 16.68 30.59 16.51L30.59 16.51L30.59 18.12L30.59 18.12Q30.59 18.53 30.60 18.86L30.60 18.86L30.60 18.86Q30.61 19.19 30.63 19.47L30.63 19.47L30.63 19.47Q30.65 19.75 30.69 19.98L30.69 19.98L30.69 19.98Q30.72 20.22 30.76 20.44L30.76 20.44L29.33 20.44L29.33 13.77L29.33 13.77Q29.33 13.14 29.32 12.60L29.32 12.60L29.32 12.60Q29.31 12.05 29.27 11.60L29.27 11.60L29.27 11.60Q29.24 11.14 29.17 10.77L29.17 10.77L29.17 10.77Q29.10 10.40 28.98 10.12L28.98 10.12ZM43.72 17.09L42.55 17.09L42.55 17.09Q42.51 16.97 42.45 16.82L42.45 16.82L42.45 16.82Q42.40 16.66 42.35 16.48L42.35 16.48L42.35 16.48Q42.29 16.30 42.25 16.11L42.25 16.11L42.25 16.11Q42.21 15.91 42.18 15.72L42.18 15.72L42.18 15.72Q41.56 16.48 40.90 16.87L40.90 16.87L40.90 16.87Q40.24 17.26 39.51 17.26L39.51 17.26L39.51 17.26Q37.32 17.26 37.32 14.32L37.32 14.32L37.32 12.30L37.32 12.30Q37.32 11.98 37.32 11.71L37.32 11.71L37.32 11.71Q37.32 11.44 37.30 11.19L37.30 11.19L37.30 11.19Q37.29 10.94 37.26 10.68L37.26 10.68L37.26 10.68Q37.24 10.42 37.19 10.12L37.19 10.12L38.59 10.12L38.59 13.91L38.59 13.91Q38.59 14.49 38.65 14.91L38.65 14.91L38.65 14.91Q38.71 15.33 38.84 15.60L38.84 15.60L38.84 15.60Q38.98 15.87 39.20 16.00L39.20 16.00L39.20 16.00Q39.42 16.13 39.75 16.13L39.75 16.13L39.75 16.13Q40.05 16.13 40.39 15.95L40.39 15.95L40.39 15.95Q40.74 15.77 41.05 15.49L41.05 15.49L41.05 15.49Q41.36 15.21 41.61 14.87L41.61 14.87L41.61 14.87Q41.87 14.53 42.01 14.22L42.01 14.22L42.01 12.30L42.01 12.30Q42.01 11.97 42.00 11.70L42.00 11.70L42.00 11.70Q42 11.43 41.99 11.18L41.99 11.18L41.99 11.18Q41.97 10.94 41.95 10.68L41.95 10.68L41.95 10.68Q41.92 10.43 41.87 10.12L41.87 10.12L43.27 10.12L43.27 14.01L43.27 14.01Q43.27 15.01 43.38 15.76L43.38 15.76L43.38 15.76Q43.50 16.51 43.72 17.09L43.72 17.09ZM44.57 11.28L44.57 10.29L45.94 10.29L45.94 8.07L47.20 8.07L47.20 10.29L49.42 10.29L49.42 11.28L47.20 11.28L47.20 14.42L47.20 14.42Q47.20 14.95 47.25 15.29L47.25 15.29L47.25 15.29Q47.30 15.62 47.41 15.81L47.41 15.81L47.41 15.81Q47.52 16.00 47.68 16.06L47.68 16.06L47.68 16.06Q47.84 16.13 48.08 16.13L48.08 16.13L48.08 16.13Q48.37 16.13 48.74 16.00L48.74 16.00L48.74 16.00Q49.11 15.87 49.56 15.62L49.56 15.62L49.56 16.71L49.56 16.71Q49.09 17.02 48.66 17.14L48.66 17.14L48.66 17.14Q48.23 17.26 47.87 17.26L47.87 17.26L47.87 17.26Q47.46 17.26 47.11 17.17L47.11 17.17L47.11 17.17Q46.76 17.08 46.50 16.84L46.50 16.84L46.50 16.84Q46.24 16.61 46.09 16.23L46.09 16.23L46.09 16.23Q45.94 15.84 45.94 15.24L45.94 15.24L45.94 11.28L44.57 11.28ZM52.40 17.09L51.13 17.09L51.13 12.89L51.13 12.89Q51.13 11.87 51.02 11.17L51.02 11.17L51.02 11.17Q50.91 10.47 50.79 10.12L50.79 10.12L52.02 10.12L52.02 10.12Q52.06 10.23 52.10 10.40L52.10 10.40L52.10 10.40Q52.14 10.58 52.18 10.77L52.18 10.77L52.18 10.77Q52.21 10.96 52.24 11.14L52.24 11.14L52.29 11.45L52.29 11.45Q52.54 11.09 52.83 10.82L52.83 10.82L52.83 10.82Q53.12 10.55 53.42 10.36L53.42 10.36L53.42 10.36Q53.72 10.17 54.00 10.08L54.00 10.08L54.00 10.08Q54.28 9.98 54.52 9.98L54.52 9.98L54.52 9.98Q54.95 9.98 55.24 10.17L55.24 10.17L55.24 10.17Q55.54 10.36 55.73 10.67L55.73 10.67L55.73 10.67Q55.92 10.99 56.00 11.41L56.00 11.41L56.00 11.41Q56.09 11.82 56.09 12.27L56.09 12.27L55.00 12.51L55.00 12.51Q55.00 12.26 54.95 12.02L54.95 12.02L54.95 12.02Q54.90 11.79 54.80 11.60L54.80 11.60L54.80 11.60Q54.71 11.42 54.56 11.32L54.56 11.32L54.56 11.32Q54.41 11.21 54.21 11.21L54.21 11.21L54.21 11.21Q53.99 11.21 53.72 11.38L53.72 11.38L53.72 11.38Q53.46 11.55 53.20 11.82L53.20 11.82L53.20 11.82Q52.94 12.09 52.73 12.43L52.73 12.43L52.73 12.43Q52.51 12.78 52.40 13.13L52.40 13.13L52.40 17.09ZM62.92 13.77L58.07 13.77L58.07 13.77Q58.09 14.38 58.26 14.82L58.26 14.82L58.26 14.82Q58.43 15.26 58.72 15.56L58.72 15.56L58.72 15.56Q59.01 15.85 59.40 15.99L59.40 15.99L59.40 15.99Q59.79 16.13 60.26 16.13L60.26 16.13L60.26 16.13Q60.92 16.13 61.56 15.98L61.56 15.98L61.56 15.98Q62.19 15.83 62.82 15.45L62.82 15.45L62.96 16.58L62.96 16.58Q62.60 16.76 62.25 16.89L62.25 16.89L62.25 16.89Q61.90 17.02 61.55 17.10L61.55 17.10L61.55 17.10Q61.20 17.19 60.84 17.22L60.84 17.22L60.84 17.22Q60.48 17.26 60.09 17.26L60.09 17.26L60.09 17.26Q59.43 17.26 58.84 17.03L58.84 17.03L58.84 17.03Q58.24 16.80 57.79 16.35L57.79 16.35L57.79 16.35Q57.34 15.91 57.07 15.24L57.07 15.24L57.07 15.24Q56.81 14.58 56.81 13.71L56.81 13.71L56.81 13.71Q56.81 12.86 57.04 12.17L57.04 12.17L57.04 12.17Q57.26 11.48 57.69 11.00L57.69 11.00L57.69 11.00Q58.11 10.51 58.72 10.24L58.72 10.24L58.72 10.24Q59.33 9.98 60.09 9.98L60.09 9.98L60.09 9.98Q60.65 9.98 61.08 10.11L61.08 10.11L61.08 10.11Q61.51 10.25 61.82 10.48L61.82 10.48L61.82 10.48Q62.14 10.72 62.35 11.03L62.35 11.03L62.35 11.03Q62.56 11.35 62.69 11.71L62.69 11.71L62.69 11.71Q62.82 12.07 62.87 12.47L62.87 12.47L62.87 12.47Q62.92 12.86 62.92 13.24L62.92 13.24L62.92 13.51L62.92 13.51Q62.92 13.68 62.92 13.77L62.92 13.77ZM59.99 11.01L59.99 11.01L59.99 11.01Q59.23 11.01 58.75 11.45L58.75 11.45L58.75 11.45Q58.28 11.89 58.13 12.82L58.13 12.82L61.69 12.82L61.69 12.82Q61.69 12.38 61.57 12.04L61.57 12.04L61.57 12.04Q61.44 11.70 61.21 11.47L61.21 11.47L61.21 11.47Q60.98 11.24 60.67 11.12L60.67 11.12L60.67 11.12Q60.35 11.01 59.99 11.01ZM69.15 17.09L67.31 14.52L65.52 17.09L63.98 17.09L63.98 17.09Q64.26 16.72 64.46 16.47L64.46 16.47L64.46 16.47Q64.65 16.22 64.79 16.02L64.79 16.02L64.79 16.02Q64.94 15.83 65.07 15.65L65.07 15.65L65.07 15.65Q65.19 15.47 65.35 15.24L65.35 15.24L66.57 13.48L65.49 11.96L65.49 11.96Q65.32 11.72 65.17 11.53L65.17 11.53L65.17 11.53Q65.03 11.34 64.87 11.14L64.87 11.14L64.87 11.14Q64.72 10.94 64.52 10.70L64.52 10.70L64.52 10.70Q64.33 10.46 64.05 10.12L64.05 10.12L65.63 10.12L67.40 12.58L69.08 10.12L70.62 10.12L70.62 10.12Q70.35 10.46 70.16 10.70L70.16 10.70L70.16 10.70Q69.98 10.94 69.83 11.15L69.83 11.15L69.83 11.15Q69.68 11.35 69.55 11.54L69.55 11.54L69.55 11.54Q69.41 11.73 69.25 11.96L69.25 11.96L68.13 13.60L69.32 15.24L69.32 15.24Q69.50 15.50 69.64 15.69L69.64 15.69L69.64 15.69Q69.77 15.87 69.92 16.06L69.92 16.06L69.92 16.06Q70.08 16.25 70.26 16.49L70.26 16.49L70.26 16.49Q70.44 16.73 70.72 17.09L70.72 17.09L69.15 17.09Z"></path></g><!----><g data-v-423bf9ae="" id="9d1b7388-f54e-45c4-a619-dc5bc50ce56b" transform="matrix(1.2565972399020926,0,0,1.2565972399020926,-17.64085827025138,-17.64085827025138)" stroke="none" fill="#DDBA2E"><path d="M77.284 74.943a2.34 2.34 0 0 1-2.342 2.341H25.057a2.34 2.34 0 0 1-2.34-2.341V25.056a2.34 2.34 0 0 1 2.34-2.34h49.885a2.34 2.34 0 0 1 2.342 2.34v49.887zM32.91 14.189h6.101v6.102H32.91zM42.269 14.189h6.101v6.102h-6.101zM51.63 14.189h6.101v6.102H51.63zM60.989 14.189h6.101v6.102h-6.101z"></path><g><path d="M32.91 79.709h6.101v6.102H32.91zM42.269 79.709h6.101v6.102h-6.101zM51.63 79.709h6.101v6.102H51.63zM60.989 79.709h6.101v6.102h-6.101z"></path></g><g><path d="M79.708 32.91h6.103v6.101h-6.103zM79.708 42.269h6.103v6.102h-6.103zM79.708 51.629h6.103v6.102h-6.103zM79.708 60.989h6.103v6.101h-6.103z"></path><g><path d="M14.189 32.91h6.102v6.101h-6.102zM14.189 42.269h6.102v6.102h-6.102zM14.189 51.629h6.102v6.102h-6.102zM14.189 60.989h6.102v6.101h-6.102z"></path></g></g></g><!----><g data-v-423bf9ae="" id="c0e2e5eb-0059-4fd4-8a8c-ece121f85e24" fill="#DDBA2E" transform="matrix(0.6510118194732661,0,0,0.6510118194732661,109.81771588346477,57.851662653234044)"><path d="M0.28 5.32L0.28 5.32L0.28 5.32Q0.28 4.76 0.42 3.88L0.42 3.88L0.42 3.88Q0.42 3.85 0.43 3.78L0.43 3.78L0.43 3.78Q0.43 3.71 0.44 3.69L0.44 3.69L0.44 3.69Q0.45 3.67 0.46 3.62L0.46 3.62L0.46 3.62Q0.46 3.57 0.48 3.55L0.48 3.55L0.48 3.55Q0.49 3.53 0.51 3.49L0.51 3.49L0.51 3.49Q0.53 3.46 0.56 3.44L0.56 3.44L0.56 3.44Q0.59 3.43 0.63 3.42L0.63 3.42L0.63 3.42Q0.67 3.40 0.73 3.39L0.73 3.39L0.73 3.39Q0.78 3.39 0.85 3.39L0.85 3.39L0.85 3.39Q1.08 3.39 2.04 3.44L2.04 3.44L2.04 3.44Q3.00 3.50 4.80 3.50L4.80 3.50L4.80 3.50Q7.88 3.50 9.11 3.43L9.11 3.43L9.11 3.43Q9.13 3.43 9.16 3.42L9.16 3.42L9.16 3.42Q9.20 3.42 9.21 3.42L9.21 3.42L9.21 3.42Q9.37 3.42 9.42 3.50L9.42 3.50L9.42 3.50Q9.48 3.58 9.48 3.65L9.48 3.65L9.48 3.65Q9.48 3.75 9.52 4.24L9.52 4.24L9.52 4.24Q9.56 4.73 9.56 4.79L9.56 4.79L9.56 4.79Q9.56 5.14 9.52 5.23L9.52 5.23L9.52 5.23Q9.48 5.32 9.34 5.32L9.34 5.32L9.34 5.32Q9.23 5.32 9.18 5.15L9.18 5.15L9.18 5.15Q9.07 4.75 8.99 4.60L8.99 4.60L8.99 4.60Q8.90 4.45 8.62 4.34L8.62 4.34L8.62 4.34Q8.34 4.23 7.77 4.23L7.77 4.23L5.95 4.23L5.95 4.23Q5.61 4.23 5.54 4.36L5.54 4.36L5.54 4.36Q5.46 4.49 5.46 5.12L5.46 5.12L5.46 5.81L5.46 5.81Q5.46 7.69 5.44 9.11L5.44 9.11L5.44 9.11Q5.42 10.54 5.42 10.93L5.42 10.93L5.42 10.93Q5.42 11.13 5.41 11.43L5.41 11.43L5.41 11.43Q5.40 11.73 5.40 11.84L5.40 11.84L5.40 11.84Q5.40 12.45 5.60 12.64L5.60 12.64L5.60 12.64Q5.78 12.81 6.01 12.90L6.01 12.90L6.01 12.90Q6.23 12.99 6.39 13.01L6.39 13.01L6.39 13.01Q6.55 13.02 6.66 13.08L6.66 13.08L6.66 13.08Q6.78 13.13 6.78 13.26L6.78 13.26L6.78 13.26Q6.78 13.41 6.71 13.45L6.71 13.45L6.71 13.45Q6.64 13.50 6.44 13.50L6.44 13.50L6.44 13.50Q6.27 13.50 5.70 13.44L5.70 13.44L5.70 13.44Q5.12 13.38 4.89 13.38L4.89 13.38L4.89 13.38Q4.72 13.38 4.21 13.43L4.21 13.43L4.21 13.43Q3.70 13.48 3.46 13.48L3.46 13.48L3.46 13.48Q2.94 13.48 2.94 13.26L2.94 13.26L2.94 13.26Q2.94 13.12 3.02 13.07L3.02 13.07L3.02 13.07Q3.11 13.02 3.35 12.98L3.35 12.98L3.35 12.98Q3.60 12.95 3.67 12.94L3.67 12.94L3.67 12.94Q4.14 12.82 4.20 12.38L4.20 12.38L4.20 12.38Q4.34 11.14 4.34 7.08L4.34 7.08L4.33 4.58L4.33 4.58Q4.33 4.31 4.17 4.25L4.17 4.25L4.17 4.25Q4.02 4.19 3.26 4.19L3.26 4.19L3.26 4.19Q2.28 4.19 1.79 4.24L1.79 4.24L1.79 4.24Q1.29 4.30 1.20 4.35L1.20 4.35L1.20 4.35Q1.12 4.40 1.01 4.54L1.01 4.54L1.01 4.54Q0.88 4.70 0.81 4.91L0.81 4.91L0.81 4.91Q0.73 5.11 0.71 5.24L0.71 5.24L0.71 5.24Q0.69 5.38 0.62 5.47L0.62 5.47L0.62 5.47Q0.56 5.56 0.43 5.56L0.43 5.56L0.43 5.56Q0.28 5.56 0.28 5.32ZM15.89 13.33L15.89 13.33L15.89 13.33Q15.89 13.13 16.10 13.06L16.10 13.06L16.10 13.06Q16.55 12.89 16.88 12.31L16.88 12.31L16.88 12.31Q17.22 11.73 18.55 8.83L18.55 8.83L18.55 8.83Q19.92 5.87 20.97 3.63L20.97 3.63L20.97 3.63Q21.07 3.42 21.15 3.36L21.15 3.36L21.15 3.36Q21.22 3.30 21.39 3.30L21.39 3.30L21.39 3.30Q21.52 3.30 21.56 3.36L21.56 3.36L21.56 3.36Q21.60 3.42 21.74 3.82L21.74 3.82L21.74 3.82Q21.83 4.06 21.89 4.23L21.89 4.23L21.89 4.23Q21.95 4.40 22.09 4.77L22.09 4.77L22.09 4.77Q22.23 5.15 22.40 5.56L22.40 5.56L22.40 5.56Q22.85 6.66 23.95 9.22L23.95 9.22L23.95 9.22Q25.05 11.77 25.14 11.98L25.14 11.98L25.14 11.98Q25.38 12.46 25.68 12.71L25.68 12.71L25.68 12.71Q25.97 12.95 26.19 12.97L26.19 12.97L26.19 12.97Q26.40 12.99 26.55 13.04L26.55 13.04L26.55 13.04Q26.70 13.09 26.70 13.26L26.70 13.26L26.70 13.26Q26.70 13.47 26.32 13.47L26.32 13.47L26.32 13.47Q26.17 13.47 25.72 13.43L25.72 13.43L25.72 13.43Q25.27 13.38 25.06 13.38L25.06 13.38L25.06 13.38Q24.79 13.38 24.37 13.41L24.37 13.41L24.37 13.41Q23.95 13.44 23.76 13.44L23.76 13.44L23.76 13.44Q23.32 13.44 23.21 13.40L23.21 13.40L23.21 13.40Q23.09 13.37 23.09 13.24L23.09 13.24L23.09 13.24Q23.09 13.15 23.20 13.08L23.20 13.08L23.20 13.08Q23.31 13.02 23.44 13.00L23.44 13.00L23.44 13.00Q23.56 12.98 23.67 12.87L23.67 12.87L23.67 12.87Q23.79 12.77 23.79 12.59L23.79 12.59L23.79 12.59Q23.79 12.28 23.44 11.33L23.44 11.33L23.44 11.33Q23.09 10.37 22.85 9.93L22.85 9.93L22.85 9.93Q22.72 9.69 22.27 9.69L22.27 9.69L22.27 9.69Q22.20 9.69 21.66 9.70L21.66 9.70L21.66 9.70Q21.11 9.72 20.58 9.72L20.58 9.72L19.84 9.72L19.84 9.72Q19.21 9.72 19.05 9.79L19.05 9.79L19.05 9.79Q18.89 9.86 18.76 10.12L18.76 10.12L18.76 10.12Q18.68 10.30 18.48 10.70L18.48 10.70L18.48 10.70Q18.28 11.10 18.21 11.26L18.21 11.26L18.21 11.26Q18.14 11.41 18.04 11.65L18.04 11.65L18.04 11.65Q17.93 11.90 17.90 12.05L17.90 12.05L17.90 12.05Q17.86 12.19 17.86 12.31L17.86 12.31L17.86 12.31Q17.86 12.63 18.03 12.80L18.03 12.80L18.03 12.80Q18.19 12.96 18.38 12.98L18.38 12.98L18.38 12.98Q18.58 13.01 18.74 13.06L18.74 13.06L18.74 13.06Q18.90 13.12 18.90 13.26L18.90 13.26L18.90 13.26Q18.90 13.36 18.86 13.40L18.86 13.40L18.86 13.40Q18.82 13.45 18.66 13.45L18.66 13.45L18.66 13.45Q18.58 13.45 18.18 13.45L18.18 13.45L18.18 13.45Q17.78 13.44 17.50 13.44L17.50 13.44L17.50 13.44Q17.19 13.44 16.81 13.47L16.81 13.47L16.81 13.47Q16.42 13.50 16.30 13.50L16.30 13.50L16.30 13.50Q15.89 13.50 15.89 13.33ZM19.40 8.71L19.40 8.71L19.40 8.71Q19.40 8.89 19.53 8.93L19.53 8.93L19.53 8.93Q19.66 8.97 20.12 8.97L20.12 8.97L20.55 8.97L21.88 8.96L21.88 8.96Q22.43 8.96 22.43 8.74L22.43 8.74L22.43 8.74Q22.43 8.55 21.74 7.01L21.74 7.01L21.74 7.01Q21.06 5.46 20.87 5.46L20.87 5.46L20.87 5.46Q20.75 5.46 20.08 7.01L20.08 7.01L20.08 7.01Q19.40 8.55 19.40 8.71ZM34.26 3.77L34.26 3.77L34.26 3.77Q34.26 3.68 34.36 3.60L34.36 3.60L34.36 3.60Q34.45 3.53 34.61 3.53L34.61 3.53L34.61 3.53Q34.69 3.53 34.89 3.54L34.89 3.54L34.89 3.54Q35.08 3.54 35.14 3.54L35.14 3.54L35.14 3.54Q35.35 3.54 35.53 3.53L35.53 3.53L35.53 3.53Q35.71 3.51 35.83 3.51L35.83 3.51L35.83 3.51Q35.95 3.51 36.12 3.59L36.12 3.59L36.12 3.59Q36.29 3.67 36.32 3.75L36.32 3.75L36.32 3.75Q36.34 3.79 36.47 3.94L36.47 3.94L36.47 3.94Q36.60 4.09 36.81 4.33L36.81 4.33L36.81 4.33Q37.02 4.56 37.18 4.79L37.18 4.79L37.18 4.79Q39.09 7.27 42.28 10.77L42.28 10.77L42.28 10.77Q42.36 10.86 42.48 10.99L42.48 10.99L42.48 10.99Q42.60 11.12 42.65 11.18L42.65 11.18L42.65 11.18Q42.70 11.24 42.76 11.30L42.76 11.30L42.76 11.30Q42.81 11.35 42.85 11.38L42.85 11.38L42.85 11.38Q42.88 11.40 42.91 11.40L42.91 11.40L42.91 11.40Q43.05 11.40 43.05 10.53L43.05 10.53L43.05 8.89L43.05 8.89Q43.05 7.95 43.04 7.31L43.04 7.31L43.04 7.31Q43.04 6.66 43.03 6.38L43.03 6.38L43.03 6.38Q43.02 6.09 43.02 6.02L43.02 6.02L43.02 5.92L43.02 5.92Q43.02 5.45 42.96 5.11L42.96 5.11L42.96 5.11Q42.90 4.77 42.81 4.59L42.81 4.59L42.81 4.59Q42.73 4.41 42.57 4.28L42.57 4.28L42.57 4.28Q42.41 4.16 42.29 4.12L42.29 4.12L42.29 4.12Q42.18 4.09 41.97 4.05L41.97 4.05L41.97 4.05Q41.76 4.00 41.68 3.98L41.68 3.98L41.68 3.98Q41.40 3.89 41.40 3.74L41.40 3.74L41.40 3.74Q41.40 3.53 41.66 3.53L41.66 3.53L41.66 3.53Q41.75 3.53 42.34 3.54L42.34 3.54L42.34 3.54Q42.92 3.54 42.99 3.54L42.99 3.54L42.99 3.54Q43.33 3.54 43.74 3.53L43.74 3.53L43.74 3.53Q44.16 3.51 44.25 3.51L44.25 3.51L44.25 3.51Q44.49 3.51 44.58 3.56L44.58 3.56L44.58 3.56Q44.67 3.61 44.67 3.75L44.67 3.75L44.67 3.75Q44.67 3.81 44.60 3.86L44.60 3.86L44.60 3.86Q44.52 3.91 44.44 3.94L44.44 3.94L44.44 3.94Q44.35 3.98 44.27 4.00L44.27 4.00L44.18 4.03L44.18 4.03Q43.72 4.28 43.72 5.61L43.72 5.61L43.72 6.15L43.72 6.15Q43.72 7.21 43.65 9.83L43.65 9.83L43.65 9.83Q43.57 12.46 43.57 13.08L43.57 13.08L43.57 13.36L43.57 13.36Q43.57 13.68 43.37 13.68L43.37 13.68L43.37 13.68Q43.25 13.68 43.15 13.58L43.15 13.58L43.15 13.58Q38.50 8.19 37.60 7.17L37.60 7.17L37.60 7.17Q36.69 6.16 36.60 6.16L36.60 6.16L36.60 6.16Q36.46 6.16 36.46 7.11L36.46 7.11L36.46 7.11Q36.46 8.44 36.40 9.97L36.40 9.97L36.40 9.97Q36.34 11.51 36.34 11.65L36.34 11.65L36.34 11.65Q36.34 12.28 36.56 12.61L36.56 12.61L36.56 12.61Q36.78 12.94 37.03 12.98L37.03 12.98L37.03 12.98Q37.28 13.02 37.50 13.07L37.50 13.07L37.50 13.07Q37.72 13.12 37.72 13.26L37.72 13.26L37.72 13.26Q37.72 13.41 37.67 13.45L37.67 13.45L37.67 13.45Q37.62 13.50 37.49 13.50L37.49 13.50L37.49 13.50Q37.39 13.50 37.05 13.48L37.05 13.48L37.05 13.48Q36.71 13.47 35.99 13.47L35.99 13.47L35.99 13.47Q35.87 13.47 35.48 13.48L35.48 13.48L35.48 13.48Q35.08 13.50 34.80 13.50L34.80 13.50L34.80 13.50Q34.50 13.50 34.50 13.27L34.50 13.27L34.50 13.27Q34.50 13.15 34.68 13.11L34.68 13.11L34.68 13.11Q34.86 13.08 35.13 12.89L35.13 12.89L35.13 12.89Q35.39 12.71 35.53 12.21L35.53 12.21L35.53 12.21Q35.62 11.89 35.74 9.60L35.74 9.60L35.74 9.60Q35.87 7.32 35.87 6.45L35.87 6.45L35.87 6.45Q35.87 5.25 35.53 4.65L35.53 4.65L35.53 4.65Q35.20 4.06 34.44 3.98L34.44 3.98L34.44 3.98Q34.26 3.96 34.26 3.77ZM52.43 3.71L52.43 3.71L52.43 3.71Q52.43 3.50 52.82 3.50L52.82 3.50L52.82 3.50Q52.96 3.50 53.47 3.53L53.47 3.53L53.47 3.53Q53.97 3.56 54.40 3.56L54.40 3.56L54.40 3.56Q54.67 3.56 54.92 3.54L54.92 3.54L54.92 3.54Q55.16 3.53 55.64 3.53L55.64 3.53L55.64 3.53Q56.01 3.53 56.01 3.72L56.01 3.72L56.01 3.72Q56.01 3.84 55.37 4.10L55.37 4.10L55.37 4.10Q54.92 4.28 54.92 5.71L54.92 5.71L54.92 5.71Q54.92 7.60 54.90 9.05L54.90 9.05L54.90 9.05Q54.88 10.50 54.88 10.89L54.88 10.89L54.88 10.89Q54.88 12.07 55.23 12.59L55.23 12.59L55.23 12.59Q55.54 13.02 55.90 13.02L55.90 13.02L55.90 13.02Q55.93 13.02 56.04 13.03L56.04 13.03L56.04 13.03Q56.15 13.03 56.18 13.03L56.18 13.03L56.18 13.03Q56.28 13.03 56.38 13.08L56.38 13.08L56.38 13.08Q56.48 13.13 56.48 13.19L56.48 13.19L56.48 13.19Q56.48 13.34 56.40 13.39L56.40 13.39L56.40 13.39Q56.32 13.44 56.13 13.44L56.13 13.44L56.13 13.44Q55.71 13.44 55.35 13.41L55.35 13.41L55.35 13.41Q54.99 13.38 54.80 13.38L54.80 13.38L54.80 13.38Q54.40 13.38 53.94 13.42L53.94 13.42L53.94 13.42Q53.48 13.45 53.26 13.45L53.26 13.45L53.26 13.45Q52.63 13.45 52.63 13.24L52.63 13.24L52.63 13.24Q52.63 13.12 52.76 13.07L52.76 13.07L52.76 13.07Q52.89 13.02 53.06 13.00L53.06 13.00L53.06 13.00Q53.23 12.98 53.41 12.82L53.41 12.82L53.41 12.82Q53.59 12.66 53.66 12.35L53.66 12.35L53.66 12.35Q53.69 12.25 53.75 10.76L53.75 10.76L53.75 10.76Q53.82 9.27 53.82 8.61L53.82 8.61L53.82 7.81L53.82 7.81Q53.82 7.63 53.82 7.12L53.82 7.12L53.82 7.12Q53.83 6.61 53.83 6.30L53.83 6.30L53.83 5.66L53.83 5.66Q53.83 5.04 53.77 4.63L53.77 4.63L53.77 4.63Q53.73 4.30 53.40 4.12L53.40 4.12L53.40 4.12Q53.07 3.93 52.72 3.92L52.72 3.92L52.72 3.92Q52.43 3.91 52.43 3.71ZM64.02 3.65L64.02 3.65L64.02 3.65Q64.02 3.46 64.41 3.46L64.41 3.46L64.41 3.46Q64.47 3.46 64.60 3.47L64.60 3.47L64.60 3.47Q64.72 3.49 64.79 3.49L64.79 3.49L64.79 3.49Q64.83 3.49 66.11 3.52L66.11 3.52L66.11 3.52Q67.38 3.56 68.21 3.56L68.21 3.56L68.21 3.56Q68.50 3.56 69.66 3.53L69.66 3.53L69.66 3.53Q70.81 3.50 71.01 3.50L71.01 3.50L71.01 3.50Q71.27 3.50 71.27 3.82L71.27 3.82L71.27 3.82Q71.27 3.91 71.19 4.38L71.19 4.38L71.19 4.38Q71.11 4.84 71.11 5.25L71.11 5.25L71.11 5.25Q71.11 5.38 71.04 5.47L71.04 5.47L71.04 5.47Q70.97 5.56 70.88 5.56L70.88 5.56L70.88 5.56Q70.67 5.56 70.67 5.26L70.67 5.26L70.67 5.26Q70.67 4.89 70.43 4.58L70.43 4.58L70.43 4.58Q70.20 4.27 69.85 4.26L69.85 4.26L69.85 4.26Q68.59 4.16 67.91 4.16L67.91 4.16L67.55 4.16L67.55 4.16Q66.82 4.16 66.70 4.26L66.70 4.26L66.70 4.26Q66.58 4.37 66.56 5.01L66.56 5.01L66.56 5.01Q66.50 6.02 66.50 7.35L66.50 7.35L66.50 7.35Q66.50 8.05 66.77 8.06L66.77 8.06L67.12 8.06L67.70 8.06L68.14 8.06L68.14 8.06Q68.98 8.06 69.26 8.01L69.26 8.01L69.26 8.01Q69.54 7.95 69.76 7.80L69.76 7.80L69.76 7.80Q70.03 7.62 70.08 7.28L70.08 7.28L70.08 7.28Q70.13 7.04 70.28 7.04L70.28 7.04L70.28 7.04Q70.41 7.04 70.43 7.08L70.43 7.08L70.43 7.08Q70.46 7.13 70.46 7.27L70.46 7.27L70.46 7.27Q70.46 7.36 70.41 7.91L70.41 7.91L70.41 7.91Q70.35 8.46 70.35 8.74L70.35 8.74L70.35 8.74Q70.35 9.00 70.37 9.24L70.37 9.24L70.37 9.24Q70.39 9.48 70.39 9.59L70.39 9.59L70.39 9.59Q70.39 9.94 70.29 9.94L70.29 9.94L70.29 9.94Q70.08 9.94 69.99 9.60L69.99 9.60L69.99 9.60Q69.79 9.02 69.64 8.92L69.64 8.92L69.64 8.92Q69.34 8.72 68.29 8.72L68.29 8.72L68.29 8.72Q67.87 8.72 67.61 8.72L67.61 8.72L67.61 8.72Q67.35 8.72 67.28 8.71L67.28 8.71L67.28 8.71Q67.20 8.71 67.15 8.71L67.15 8.71L67.15 8.71Q67.10 8.71 67.06 8.71L67.06 8.71L67.06 8.71Q66.49 8.71 66.49 8.97L66.49 8.97L66.49 8.97Q66.49 9.38 66.47 9.99L66.47 9.99L66.47 9.99Q66.46 10.60 66.46 10.99L66.46 10.99L66.46 11.55L66.46 11.55Q66.46 12.56 66.79 12.66L66.79 12.66L66.79 12.66Q67.14 12.77 67.40 12.77L67.40 12.77L67.40 12.77Q68.45 12.77 69.24 12.67L69.24 12.67L69.24 12.67Q70.03 12.57 70.43 12.42L70.43 12.42L70.43 12.42Q70.83 12.28 71.09 12.10L71.09 12.10L71.09 12.10Q71.36 11.93 71.44 11.78L71.44 11.78L71.44 11.78Q71.51 11.63 71.59 11.54L71.59 11.54L71.59 11.54Q71.67 11.44 71.75 11.44L71.75 11.44L71.75 11.44Q71.92 11.44 71.92 11.68L71.92 11.68L71.92 11.68Q71.92 12.28 71.32 12.89L71.32 12.89L71.32 12.89Q70.71 13.51 70.27 13.51L70.27 13.51L70.27 13.51Q69.26 13.51 67.99 13.44L67.99 13.44L67.99 13.44Q66.72 13.37 66.42 13.37L66.42 13.37L66.42 13.37Q66.02 13.37 65.44 13.43L65.44 13.43L65.44 13.43Q64.85 13.50 64.51 13.50L64.51 13.50L64.51 13.50Q64.22 13.50 64.22 13.36L64.22 13.36L64.22 13.36Q64.22 13.23 64.22 13.19L64.22 13.19L64.22 13.19Q64.22 13.15 64.26 13.12L64.26 13.12L64.26 13.12Q64.30 13.09 64.35 13.08L64.35 13.08L64.35 13.08Q64.40 13.08 64.53 13.03L64.53 13.03L64.53 13.03Q64.67 12.99 64.82 12.92L64.82 12.92L64.82 12.92Q65.16 12.75 65.26 12.26L65.26 12.26L65.26 12.26Q65.37 11.77 65.37 10.21L65.37 10.21L65.37 8.47L65.37 8.47Q65.37 8.09 65.39 7.29L65.39 7.29L65.39 7.29Q65.41 6.50 65.41 6.05L65.41 6.05L65.41 6.05Q65.41 5.67 65.38 4.77L65.38 4.77L65.38 4.77Q65.37 4.37 65.03 4.14L65.03 4.14L65.03 4.14Q64.69 3.92 64.25 3.91L64.25 3.91L64.25 3.91Q64.02 3.91 64.02 3.65ZM78.57 15.60L78.57 15.60L78.57 15.60Q78.57 15.39 78.73 15.11L78.73 15.11L78.73 15.11Q78.89 14.83 79.00 14.83L79.00 14.83L79.00 14.83Q79.09 14.83 79.30 15.06L79.30 15.06L79.30 15.06Q79.52 15.30 79.81 15.30L79.81 15.30L79.81 15.30Q80.58 15.30 80.78 14.21L80.78 14.21L80.78 14.21Q80.96 13.26 80.96 12.52L80.96 12.52L80.96 12.52Q80.96 12.36 80.96 11.94L80.96 11.94L80.96 11.94Q80.96 11.52 80.96 11.16L80.96 11.16L80.95 10.79L80.95 10.79Q80.95 10.51 80.94 10.30L80.94 10.30L80.94 10.30Q80.93 10.09 80.93 9.86L80.93 9.86L80.93 9.86Q80.92 9.62 80.91 8.64L80.91 8.64L80.91 8.64Q80.91 7.66 80.91 6.02L80.91 6.02L80.91 6.02Q80.91 5.12 80.85 4.63L80.85 4.63L80.85 4.63Q80.81 4.30 80.48 4.13L80.48 4.13L80.48 4.13Q80.15 3.96 79.79 3.95L79.79 3.95L79.79 3.95Q79.48 3.93 79.48 3.70L79.48 3.70L79.48 3.70Q79.48 3.46 79.88 3.46L79.88 3.46L79.88 3.46Q80.02 3.46 80.52 3.50L80.52 3.50L80.52 3.50Q81.02 3.54 81.47 3.54L81.47 3.54L81.47 3.54Q81.73 3.54 81.93 3.54L81.93 3.54L81.93 3.54Q82.12 3.53 82.60 3.53L82.60 3.53L82.60 3.53Q82.99 3.53 82.99 3.71L82.99 3.71L82.99 3.71Q82.99 3.84 82.35 4.10L82.35 4.10L82.35 4.10Q82.05 4.21 82.05 5.05L82.05 5.05L82.05 5.70L82.05 5.70Q82.05 8.02 82.05 9.50L82.05 9.50L82.05 9.50Q82.04 10.98 82.04 11.40L82.04 11.40L82.04 11.40Q82.04 11.82 82.03 12.07L82.03 12.07L82.03 12.07Q82.03 12.32 82.03 12.47L82.03 12.47L82.03 12.47Q82.03 14.07 81.17 15.10L81.17 15.10L81.17 15.10Q80.30 16.13 79.13 16.13L79.13 16.13L79.13 16.13Q78.57 16.13 78.57 15.60ZM91.01 12.68L91.01 12.68L91.01 12.68Q91.01 12.61 91.06 12.54L91.06 12.54L91.06 12.54Q91.10 12.47 91.15 12.42L91.15 12.42L91.15 12.42Q91.20 12.38 91.29 12.29L91.29 12.29L91.29 12.29Q91.39 12.19 91.45 12.14L91.45 12.14L91.45 12.14Q91.49 12.10 91.56 12.00L91.56 12.00L91.56 12.00Q91.63 11.90 91.69 11.84L91.69 11.84L91.69 11.84Q91.74 11.79 91.83 11.74L91.83 11.74L91.83 11.74Q91.92 11.69 92.04 11.69L92.04 11.69L92.04 11.69Q92.11 11.69 92.32 11.86L92.32 11.86L92.32 11.86Q92.53 12.03 92.76 12.46L92.76 12.46L92.76 12.46Q93.00 12.89 93.00 13.44L93.00 13.44L93.00 13.44Q93.00 14.32 92.38 15.04L92.38 15.04L92.38 15.04Q91.76 15.76 91.38 15.76L91.38 15.76L91.38 15.76Q91.17 15.76 91.17 15.58L91.17 15.58L91.17 15.58Q91.17 15.48 91.30 15.36L91.30 15.36L91.30 15.36Q91.43 15.23 91.60 15.10L91.60 15.10L91.60 15.10Q91.77 14.97 91.90 14.71L91.90 14.71L91.90 14.71Q92.04 14.45 92.04 14.11L92.04 14.11L92.04 14.11Q92.04 13.83 91.91 13.62L91.91 13.62L91.91 13.62Q91.78 13.40 91.68 13.31L91.68 13.31L91.68 13.31Q91.57 13.22 91.25 12.98L91.25 12.98L91.25 12.98Q91.07 12.85 91.04 12.82L91.04 12.82L91.04 12.82Q91.01 12.78 91.01 12.68ZM111.02 3.71L111.02 3.71L111.02 3.71Q111.02 3.46 111.40 3.46L111.40 3.46L111.40 3.46Q111.45 3.46 111.58 3.47L111.58 3.47L111.58 3.47Q111.71 3.49 111.78 3.49L111.78 3.49L111.78 3.49Q111.92 3.49 112.30 3.51L112.30 3.51L112.30 3.51Q112.69 3.54 112.99 3.54L112.99 3.54L112.99 3.54Q113.43 3.54 113.92 3.51L113.92 3.51L113.92 3.51Q114.41 3.49 114.46 3.49L114.46 3.49L114.46 3.49Q114.70 3.49 114.70 3.63L114.70 3.63L114.70 3.63Q114.70 3.82 114.53 3.88L114.53 3.88L114.53 3.88Q114.37 3.95 114.16 3.97L114.16 3.97L114.16 3.97Q113.96 3.99 113.77 4.28L113.77 4.28L113.77 4.28Q113.58 4.56 113.55 5.14L113.55 5.14L113.55 5.14Q113.53 5.68 113.48 8.19L113.48 8.19L113.48 8.19Q113.44 10.70 113.44 10.99L113.44 10.99L113.44 11.55L113.44 11.55Q113.44 12.56 113.78 12.66L113.78 12.66L113.78 12.66Q114.13 12.77 114.38 12.77L114.38 12.77L114.38 12.77Q115.43 12.77 116.22 12.67L116.22 12.67L116.22 12.67Q117.01 12.57 117.41 12.42L117.41 12.42L117.41 12.42Q117.81 12.28 118.08 12.10L118.08 12.10L118.08 12.10Q118.34 11.93 118.42 11.78L118.42 11.78L118.42 11.78Q118.50 11.63 118.57 11.54L118.57 11.54L118.57 11.54Q118.65 11.44 118.73 11.44L118.73 11.44L118.73 11.44Q118.90 11.44 118.90 11.68L118.90 11.68L118.90 11.68Q118.90 12.28 118.30 12.89L118.30 12.89L118.30 12.89Q117.70 13.51 117.25 13.51L117.25 13.51L117.25 13.51Q116.24 13.51 114.98 13.44L114.98 13.44L114.98 13.44Q113.71 13.37 113.40 13.37L113.40 13.37L113.40 13.37Q113.01 13.37 112.50 13.43L112.50 13.43L112.50 13.43Q111.99 13.48 111.65 13.48L111.65 13.48L111.65 13.48Q111.24 13.48 111.24 13.31L111.24 13.31L111.24 13.31Q111.24 13.22 111.32 13.15L111.32 13.15L111.32 13.15Q111.40 13.09 111.47 13.09L111.47 13.09L111.47 13.09Q111.68 13.09 111.87 12.95L111.87 12.95L111.87 12.95Q112.13 12.75 112.24 12.23L112.24 12.23L112.24 12.23Q112.35 11.70 112.35 10.21L112.35 10.21L112.35 8.47L112.35 8.47Q112.35 8.09 112.37 7.29L112.37 7.29L112.37 7.29Q112.39 6.50 112.39 6.05L112.39 6.05L112.39 6.05Q112.39 5.67 112.36 4.77L112.36 4.77L112.36 4.77Q112.35 4.37 112.01 4.14L112.01 4.14L112.01 4.14Q111.68 3.92 111.23 3.91L111.23 3.91L111.23 3.91Q111.09 3.91 111.06 3.86L111.06 3.86L111.06 3.86Q111.02 3.81 111.02 3.71ZM126.46 3.65L126.46 3.65L126.46 3.65Q126.46 3.46 126.85 3.46L126.85 3.46L126.85 3.46Q126.91 3.46 127.04 3.47L127.04 3.47L127.04 3.47Q127.16 3.49 127.23 3.49L127.23 3.49L127.23 3.49Q127.27 3.49 128.55 3.52L128.55 3.52L128.55 3.52Q129.82 3.56 130.65 3.56L130.65 3.56L130.65 3.56Q130.94 3.56 132.10 3.53L132.10 3.53L132.10 3.53Q133.25 3.50 133.45 3.50L133.45 3.50L133.45 3.50Q133.71 3.50 133.71 3.82L133.71 3.82L133.71 3.82Q133.71 3.91 133.63 4.38L133.63 4.38L133.63 4.38Q133.55 4.84 133.55 5.25L133.55 5.25L133.55 5.25Q133.55 5.38 133.48 5.47L133.48 5.47L133.48 5.47Q133.41 5.56 133.32 5.56L133.32 5.56L133.32 5.56Q133.11 5.56 133.11 5.26L133.11 5.26L133.11 5.26Q133.11 4.89 132.87 4.58L132.87 4.58L132.87 4.58Q132.64 4.27 132.29 4.26L132.29 4.26L132.29 4.26Q131.03 4.16 130.35 4.16L130.35 4.16L129.99 4.16L129.99 4.16Q129.26 4.16 129.14 4.26L129.14 4.26L129.14 4.26Q129.02 4.37 129.00 5.01L129.00 5.01L129.00 5.01Q128.94 6.02 128.94 7.35L128.94 7.35L128.94 7.35Q128.94 8.05 129.21 8.06L129.21 8.06L129.56 8.06L130.14 8.06L130.58 8.06L130.58 8.06Q131.42 8.06 131.70 8.01L131.70 8.01L131.70 8.01Q131.98 7.95 132.20 7.80L132.20 7.80L132.20 7.80Q132.47 7.62 132.52 7.28L132.52 7.28L132.52 7.28Q132.57 7.04 132.72 7.04L132.72 7.04L132.72 7.04Q132.85 7.04 132.87 7.08L132.87 7.08L132.87 7.08Q132.90 7.13 132.90 7.27L132.90 7.27L132.90 7.27Q132.90 7.36 132.85 7.91L132.85 7.91L132.85 7.91Q132.79 8.46 132.79 8.74L132.79 8.74L132.79 8.74Q132.79 9.00 132.81 9.24L132.81 9.24L132.81 9.24Q132.83 9.48 132.83 9.59L132.83 9.59L132.83 9.59Q132.83 9.94 132.73 9.94L132.73 9.94L132.73 9.94Q132.52 9.94 132.43 9.60L132.43 9.60L132.43 9.60Q132.23 9.02 132.08 8.92L132.08 8.92L132.08 8.92Q131.78 8.72 130.73 8.72L130.73 8.72L130.73 8.72Q130.31 8.72 130.05 8.72L130.05 8.72L130.05 8.72Q129.79 8.72 129.72 8.71L129.72 8.71L129.72 8.71Q129.64 8.71 129.59 8.71L129.59 8.71L129.59 8.71Q129.54 8.71 129.50 8.71L129.50 8.71L129.50 8.71Q128.93 8.71 128.93 8.97L128.93 8.97L128.93 8.97Q128.93 9.38 128.91 9.99L128.91 9.99L128.91 9.99Q128.90 10.60 128.90 10.99L128.90 10.99L128.90 11.55L128.90 11.55Q128.90 12.56 129.23 12.66L129.23 12.66L129.23 12.66Q129.58 12.77 129.84 12.77L129.84 12.77L129.84 12.77Q130.89 12.77 131.68 12.67L131.68 12.67L131.68 12.67Q132.47 12.57 132.87 12.42L132.87 12.42L132.87 12.42Q133.27 12.28 133.53 12.10L133.53 12.10L133.53 12.10Q133.80 11.93 133.88 11.78L133.88 11.78L133.88 11.78Q133.95 11.63 134.03 11.54L134.03 11.54L134.03 11.54Q134.11 11.44 134.19 11.44L134.19 11.44L134.19 11.44Q134.36 11.44 134.36 11.68L134.36 11.68L134.36 11.68Q134.36 12.28 133.76 12.89L133.76 12.89L133.76 12.89Q133.15 13.51 132.71 13.51L132.71 13.51L132.71 13.51Q131.70 13.51 130.43 13.44L130.43 13.44L130.43 13.44Q129.16 13.37 128.86 13.37L128.86 13.37L128.86 13.37Q128.46 13.37 127.88 13.43L127.88 13.43L127.88 13.43Q127.29 13.50 126.95 13.50L126.95 13.50L126.95 13.50Q126.66 13.50 126.66 13.36L126.66 13.36L126.66 13.36Q126.66 13.23 126.66 13.19L126.66 13.19L126.66 13.19Q126.66 13.15 126.70 13.12L126.70 13.12L126.70 13.12Q126.74 13.09 126.79 13.08L126.79 13.08L126.79 13.08Q126.84 13.08 126.97 13.03L126.97 13.03L126.97 13.03Q127.11 12.99 127.26 12.92L127.26 12.92L127.26 12.92Q127.60 12.75 127.70 12.26L127.70 12.26L127.70 12.26Q127.81 11.77 127.81 10.21L127.81 10.21L127.81 8.47L127.81 8.47Q127.81 8.09 127.83 7.29L127.83 7.29L127.83 7.29Q127.85 6.50 127.85 6.05L127.85 6.05L127.85 6.05Q127.85 5.67 127.82 4.77L127.82 4.77L127.82 4.77Q127.81 4.37 127.47 4.14L127.47 4.14L127.47 4.14Q127.13 3.92 126.69 3.91L126.69 3.91L126.69 3.91Q126.46 3.91 126.46 3.65ZM141.92 3.72L141.92 3.72L141.92 3.72Q141.92 3.50 142.24 3.50L142.24 3.50L142.24 3.50Q142.28 3.50 142.39 3.49L142.39 3.49L142.39 3.49Q142.51 3.49 142.76 3.49L142.76 3.49L142.76 3.49Q142.83 3.49 143.14 3.51L143.14 3.51L143.14 3.51Q143.46 3.53 143.60 3.53L143.60 3.53L143.60 3.53Q143.91 3.53 144.79 3.51L144.79 3.51L144.79 3.51Q145.67 3.49 145.91 3.49L145.91 3.49L145.91 3.49Q147.22 3.49 148.18 4.15L148.18 4.15L148.18 4.15Q149.13 4.82 149.13 6.06L149.13 6.06L149.13 6.06Q149.13 6.75 148.88 7.29L148.88 7.29L148.88 7.29Q148.62 7.83 148.27 8.13L148.27 8.13L148.27 8.13Q147.91 8.44 147.47 8.64L147.47 8.64L147.47 8.64Q147.03 8.85 146.69 8.91L146.69 8.91L146.69 8.91Q146.34 8.97 146.08 8.97L146.08 8.97L146.08 8.97Q145.63 8.97 145.17 8.87L145.17 8.87L145.17 8.87Q144.70 8.76 144.70 8.65L144.70 8.65L144.70 8.65Q144.70 8.44 144.89 8.44L144.89 8.44L144.89 8.44Q144.96 8.44 145.17 8.50L145.17 8.50L145.17 8.50Q145.39 8.55 145.60 8.55L145.60 8.55L145.60 8.55Q145.92 8.55 146.29 8.46L146.29 8.46L146.29 8.46Q146.65 8.37 147.04 8.17L147.04 8.17L147.04 8.17Q147.43 7.97 147.69 7.55L147.69 7.55L147.69 7.55Q147.94 7.14 147.94 6.59L147.94 6.59L147.94 6.59Q147.94 5.66 147.18 4.85L147.18 4.85L147.18 4.85Q146.43 4.05 145.10 4.05L145.10 4.05L145.10 4.05Q144.66 4.05 144.51 4.30L144.51 4.30L144.51 4.30Q144.35 4.56 144.35 5.47L144.35 5.47L144.35 5.47Q144.35 8.39 144.34 8.80L144.34 8.80L144.34 8.80Q144.33 9.21 144.33 11.26L144.33 11.26L144.33 11.26Q144.33 12.49 144.90 12.87L144.90 12.87L144.90 12.87Q145.05 12.96 145.28 12.99L145.28 12.99L145.28 12.99Q145.52 13.02 145.67 13.01L145.67 13.01L145.67 13.01Q145.82 13.01 145.94 13.07L145.94 13.07L145.94 13.07Q146.06 13.13 146.06 13.30L146.06 13.30L146.06 13.30Q146.06 13.54 145.74 13.54L145.74 13.54L145.74 13.54Q145.42 13.54 144.61 13.50L144.61 13.50L144.61 13.50Q143.79 13.47 143.74 13.47L143.74 13.47L143.74 13.47Q143.60 13.47 143.19 13.50L143.19 13.50L143.19 13.50Q142.77 13.52 142.44 13.52L142.44 13.52L142.44 13.52Q142.00 13.52 142.00 13.37L142.00 13.37L142.00 13.37Q142.00 13.29 142.02 13.23L142.02 13.23L142.02 13.23Q142.04 13.17 142.06 13.14L142.06 13.14L142.06 13.14Q142.09 13.10 142.16 13.08L142.16 13.08L142.16 13.08Q142.23 13.05 142.25 13.03L142.25 13.03L142.25 13.03Q142.28 13.02 142.39 13.00L142.39 13.00L142.39 13.00Q142.49 12.98 142.53 12.96L142.53 12.96L142.53 12.96Q142.56 12.95 142.62 12.94L142.62 12.94L142.62 12.94Q142.67 12.94 142.69 12.93L142.69 12.93L142.69 12.93Q142.72 12.92 142.77 12.89L142.77 12.89L142.77 12.89Q142.81 12.85 142.84 12.79L142.84 12.79L142.84 12.79Q142.87 12.73 142.92 12.62L142.92 12.62L142.92 12.62Q142.97 12.52 143.02 12.35L143.02 12.35L143.02 12.35Q143.12 12.08 143.18 10.25L143.18 10.25L143.18 10.25Q143.23 8.41 143.23 7.41L143.23 7.41L143.23 7.41Q143.23 6.54 143.23 5.80L143.23 5.80L143.23 5.80Q143.22 5.07 143.22 5.03L143.22 5.03L143.22 5.03Q143.22 4.65 142.98 4.28L142.98 4.28L142.98 4.28Q142.74 3.91 142.20 3.91L142.20 3.91L142.20 3.91Q141.92 3.91 141.92 3.72ZM156.81 3.71L156.81 3.71L156.81 3.71Q156.81 3.50 157.21 3.50L157.21 3.50L157.21 3.50Q157.35 3.50 157.85 3.53L157.85 3.53L157.85 3.53Q158.35 3.56 158.79 3.56L158.79 3.56L158.79 3.56Q159.05 3.56 159.30 3.54L159.30 3.54L159.30 3.54Q159.54 3.53 160.02 3.53L160.02 3.53L160.02 3.53Q160.40 3.53 160.40 3.72L160.40 3.72L160.40 3.72Q160.40 3.84 159.75 4.10L159.75 4.10L159.75 4.10Q159.31 4.28 159.31 5.71L159.31 5.71L159.31 5.71Q159.31 7.60 159.28 9.05L159.28 9.05L159.28 9.05Q159.26 10.50 159.26 10.89L159.26 10.89L159.26 10.89Q159.26 12.07 159.61 12.59L159.61 12.59L159.61 12.59Q159.92 13.02 160.29 13.02L160.29 13.02L160.29 13.02Q160.31 13.02 160.43 13.03L160.43 13.03L160.43 13.03Q160.54 13.03 160.57 13.03L160.57 13.03L160.57 13.03Q160.66 13.03 160.76 13.08L160.76 13.08L160.76 13.08Q160.86 13.13 160.86 13.19L160.86 13.19L160.86 13.19Q160.86 13.34 160.78 13.39L160.78 13.39L160.78 13.39Q160.71 13.44 160.51 13.44L160.51 13.44L160.51 13.44Q160.09 13.44 159.73 13.41L159.73 13.41L159.73 13.41Q159.38 13.38 159.18 13.38L159.18 13.38L159.18 13.38Q158.79 13.38 158.33 13.42L158.33 13.42L158.33 13.42Q157.86 13.45 157.64 13.45L157.64 13.45L157.64 13.45Q157.01 13.45 157.01 13.24L157.01 13.24L157.01 13.24Q157.01 13.12 157.14 13.07L157.14 13.07L157.14 13.07Q157.28 13.02 157.44 13.00L157.44 13.00L157.44 13.00Q157.61 12.98 157.79 12.82L157.79 12.82L157.79 12.82Q157.98 12.66 158.05 12.35L158.05 12.35L158.05 12.35Q158.07 12.25 158.14 10.76L158.14 10.76L158.14 10.76Q158.20 9.27 158.20 8.61L158.20 8.61L158.20 7.81L158.20 7.81Q158.20 7.63 158.21 7.12L158.21 7.12L158.21 7.12Q158.21 6.61 158.21 6.30L158.21 6.30L158.21 5.66L158.21 5.66Q158.21 5.04 158.16 4.63L158.16 4.63L158.16 4.63Q158.12 4.30 157.79 4.12L157.79 4.12L157.79 4.12Q157.46 3.93 157.11 3.92L157.11 3.92L157.11 3.92Q156.81 3.91 156.81 3.71ZM168.41 3.65L168.41 3.65L168.41 3.65Q168.41 3.46 168.80 3.46L168.80 3.46L168.80 3.46Q168.85 3.46 168.98 3.47L168.98 3.47L168.98 3.47Q169.11 3.49 169.18 3.49L169.18 3.49L169.18 3.49Q169.22 3.49 170.49 3.52L170.49 3.52L170.49 3.52Q171.77 3.56 172.59 3.56L172.59 3.56L172.59 3.56Q172.89 3.56 174.04 3.53L174.04 3.53L174.04 3.53Q175.20 3.50 175.39 3.50L175.39 3.50L175.39 3.50Q175.66 3.50 175.66 3.82L175.66 3.82L175.66 3.82Q175.66 3.91 175.57 4.38L175.57 4.38L175.57 4.38Q175.49 4.84 175.49 5.25L175.49 5.25L175.49 5.25Q175.49 5.38 175.42 5.47L175.42 5.47L175.42 5.47Q175.35 5.56 175.27 5.56L175.27 5.56L175.27 5.56Q175.06 5.56 175.06 5.26L175.06 5.26L175.06 5.26Q175.06 4.89 174.82 4.58L174.82 4.58L174.82 4.58Q174.58 4.27 174.23 4.26L174.23 4.26L174.23 4.26Q172.97 4.16 172.30 4.16L172.30 4.16L171.93 4.16L171.93 4.16Q171.21 4.16 171.09 4.26L171.09 4.26L171.09 4.26Q170.97 4.37 170.94 5.01L170.94 5.01L170.94 5.01Q170.88 6.02 170.88 7.35L170.88 7.35L170.88 7.35Q170.88 8.05 171.15 8.06L171.15 8.06L171.50 8.06L172.09 8.06L172.52 8.06L172.52 8.06Q173.36 8.06 173.64 8.01L173.64 8.01L173.64 8.01Q173.92 7.95 174.15 7.80L174.15 7.80L174.15 7.80Q174.41 7.62 174.47 7.28L174.47 7.28L174.47 7.28Q174.51 7.04 174.66 7.04L174.66 7.04L174.66 7.04Q174.79 7.04 174.82 7.08L174.82 7.08L174.82 7.08Q174.85 7.13 174.85 7.27L174.85 7.27L174.85 7.27Q174.85 7.36 174.79 7.91L174.79 7.91L174.79 7.91Q174.73 8.46 174.73 8.74L174.73 8.74L174.73 8.74Q174.73 9.00 174.75 9.24L174.75 9.24L174.75 9.24Q174.78 9.48 174.78 9.59L174.78 9.59L174.78 9.59Q174.78 9.94 174.68 9.94L174.68 9.94L174.68 9.94Q174.47 9.94 174.37 9.60L174.37 9.60L174.37 9.60Q174.17 9.02 174.02 8.92L174.02 8.92L174.02 8.92Q173.73 8.72 172.68 8.72L172.68 8.72L172.68 8.72Q172.26 8.72 172.00 8.72L172.00 8.72L172.00 8.72Q171.74 8.72 171.66 8.71L171.66 8.71L171.66 8.71Q171.58 8.71 171.53 8.71L171.53 8.71L171.53 8.71Q171.49 8.71 171.44 8.71L171.44 8.71L171.44 8.71Q170.87 8.71 170.87 8.97L170.87 8.97L170.87 8.97Q170.87 9.38 170.86 9.99L170.86 9.99L170.86 9.99Q170.84 10.60 170.84 10.99L170.84 10.99L170.84 11.55L170.84 11.55Q170.84 12.56 171.18 12.66L171.18 12.66L171.18 12.66Q171.53 12.77 171.78 12.77L171.78 12.77L171.78 12.77Q172.83 12.77 173.62 12.67L173.62 12.67L173.62 12.67Q174.41 12.57 174.81 12.42L174.81 12.42L174.81 12.42Q175.21 12.28 175.48 12.10L175.48 12.10L175.48 12.10Q175.74 11.93 175.82 11.78L175.82 11.78L175.82 11.78Q175.90 11.63 175.97 11.54L175.97 11.54L175.97 11.54Q176.05 11.44 176.13 11.44L176.13 11.44L176.13 11.44Q176.30 11.44 176.30 11.68L176.30 11.68L176.30 11.68Q176.30 12.28 175.70 12.89L175.70 12.89L175.70 12.89Q175.10 13.51 174.65 13.51L174.65 13.51L174.65 13.51Q173.64 13.51 172.38 13.44L172.38 13.44L172.38 13.44Q171.11 13.37 170.80 13.37L170.80 13.37L170.80 13.37Q170.41 13.37 169.82 13.43L169.82 13.43L169.82 13.43Q169.23 13.50 168.90 13.50L168.90 13.50L168.90 13.50Q168.60 13.50 168.60 13.36L168.60 13.36L168.60 13.36Q168.60 13.23 168.60 13.19L168.60 13.19L168.60 13.19Q168.60 13.15 168.64 13.12L168.64 13.12L168.64 13.12Q168.69 13.09 168.74 13.08L168.74 13.08L168.74 13.08Q168.78 13.08 168.92 13.03L168.92 13.03L168.92 13.03Q169.05 12.99 169.20 12.92L169.20 12.92L169.20 12.92Q169.54 12.75 169.65 12.26L169.65 12.26L169.65 12.26Q169.75 11.77 169.75 10.21L169.75 10.21L169.75 8.47L169.75 8.47Q169.75 8.09 169.77 7.29L169.77 7.29L169.77 7.29Q169.79 6.50 169.79 6.05L169.79 6.05L169.79 6.05Q169.79 5.67 169.76 4.77L169.76 4.77L169.76 4.77Q169.75 4.37 169.41 4.14L169.41 4.14L169.41 4.14Q169.08 3.92 168.63 3.91L168.63 3.91L168.63 3.91Q168.41 3.91 168.41 3.65ZM182.95 15.60L182.95 15.60L182.95 15.60Q182.95 15.39 183.11 15.11L183.11 15.11L183.11 15.11Q183.27 14.83 183.39 14.83L183.39 14.83L183.39 14.83Q183.47 14.83 183.69 15.06L183.69 15.06L183.69 15.06Q183.90 15.30 184.20 15.30L184.20 15.30L184.20 15.30Q184.97 15.30 185.16 14.21L185.16 14.21L185.16 14.21Q185.35 13.26 185.35 12.52L185.35 12.52L185.35 12.52Q185.35 12.36 185.35 11.94L185.35 11.94L185.35 11.94Q185.35 11.52 185.35 11.16L185.35 11.16L185.33 10.79L185.33 10.79Q185.33 10.51 185.32 10.30L185.32 10.30L185.32 10.30Q185.32 10.09 185.31 9.86L185.31 9.86L185.31 9.86Q185.30 9.62 185.30 8.64L185.30 8.64L185.30 8.64Q185.29 7.66 185.29 6.02L185.29 6.02L185.29 6.02Q185.29 5.12 185.23 4.63L185.23 4.63L185.23 4.63Q185.19 4.30 184.86 4.13L184.86 4.13L184.86 4.13Q184.53 3.96 184.17 3.95L184.17 3.95L184.17 3.95Q183.86 3.93 183.86 3.70L183.86 3.70L183.86 3.70Q183.86 3.46 184.27 3.46L184.27 3.46L184.27 3.46Q184.41 3.46 184.91 3.50L184.91 3.50L184.91 3.50Q185.40 3.54 185.85 3.54L185.85 3.54L185.85 3.54Q186.12 3.54 186.31 3.54L186.31 3.54L186.31 3.54Q186.51 3.53 186.98 3.53L186.98 3.53L186.98 3.53Q187.38 3.53 187.38 3.71L187.38 3.71L187.38 3.71Q187.38 3.84 186.73 4.10L186.73 4.10L186.73 4.10Q186.44 4.21 186.44 5.05L186.44 5.05L186.44 5.70L186.44 5.70Q186.44 8.02 186.43 9.50L186.43 9.50L186.43 9.50Q186.42 10.98 186.42 11.40L186.42 11.40L186.42 11.40Q186.42 11.82 186.42 12.07L186.42 12.07L186.42 12.07Q186.41 12.32 186.41 12.47L186.41 12.47L186.41 12.47Q186.41 14.07 185.55 15.10L185.55 15.10L185.55 15.10Q184.69 16.13 183.51 16.13L183.51 16.13L183.51 16.13Q182.95 16.13 182.95 15.60ZM195.40 12.68L195.40 12.68L195.40 12.68Q195.40 12.61 195.44 12.54L195.44 12.54L195.44 12.54Q195.48 12.47 195.53 12.42L195.53 12.42L195.53 12.42Q195.58 12.38 195.68 12.29L195.68 12.29L195.68 12.29Q195.78 12.19 195.83 12.14L195.83 12.14L195.83 12.14Q195.87 12.10 195.94 12.00L195.94 12.00L195.94 12.00Q196.01 11.90 196.07 11.84L196.07 11.84L196.07 11.84Q196.13 11.79 196.22 11.74L196.22 11.74L196.22 11.74Q196.31 11.69 196.42 11.69L196.42 11.69L196.42 11.69Q196.49 11.69 196.70 11.86L196.70 11.86L196.70 11.86Q196.91 12.03 197.15 12.46L197.15 12.46L197.15 12.46Q197.39 12.89 197.39 13.44L197.39 13.44L197.39 13.44Q197.39 14.32 196.76 15.04L196.76 15.04L196.76 15.04Q196.14 15.76 195.76 15.76L195.76 15.76L195.76 15.76Q195.55 15.76 195.55 15.58L195.55 15.58L195.55 15.58Q195.55 15.48 195.69 15.36L195.69 15.36L195.69 15.36Q195.82 15.23 195.99 15.10L195.99 15.10L195.99 15.10Q196.15 14.97 196.29 14.71L196.29 14.71L196.29 14.71Q196.42 14.45 196.42 14.11L196.42 14.11L196.42 14.11Q196.42 13.83 196.29 13.62L196.29 13.62L196.29 13.62Q196.17 13.40 196.06 13.31L196.06 13.31L196.06 13.31Q195.96 13.22 195.64 12.98L195.64 12.98L195.64 12.98Q195.45 12.85 195.43 12.82L195.43 12.82L195.43 12.82Q195.40 12.78 195.40 12.68ZM215.40 3.72L215.40 3.72L215.40 3.72Q215.40 3.51 215.53 3.51L215.53 3.51L215.53 3.51Q215.57 3.51 215.71 3.52L215.71 3.52L215.71 3.52Q215.85 3.53 216.09 3.53L216.09 3.53L216.09 3.53Q216.37 3.53 217.20 3.52L217.20 3.52L217.20 3.52Q218.04 3.51 218.13 3.51L218.13 3.51L218.13 3.51Q218.46 3.51 218.95 3.49L218.95 3.49L218.95 3.49Q219.44 3.47 219.67 3.47L219.67 3.47L219.67 3.47Q220.95 3.47 221.80 4.08L221.80 4.08L221.80 4.08Q222.66 4.69 222.66 5.81L222.66 5.81L222.66 5.81Q222.66 6.22 222.51 6.57L222.51 6.57L222.51 6.57Q222.36 6.93 222.16 7.15L222.16 7.15L222.16 7.15Q221.96 7.38 221.75 7.54L221.75 7.54L221.75 7.54Q221.55 7.70 221.40 7.79L221.40 7.79L221.40 7.79Q221.26 7.88 221.26 7.90L221.26 7.90L221.26 7.90Q221.26 7.94 221.49 8.00L221.49 8.00L221.49 8.00Q221.73 8.06 222.07 8.21L222.07 8.21L222.07 8.21Q222.40 8.36 222.73 8.61L222.73 8.61L222.73 8.61Q223.06 8.86 223.30 9.36L223.30 9.36L223.30 9.36Q223.54 9.86 223.54 10.53L223.54 10.53L223.54 10.53Q223.54 11.13 223.19 11.82L223.19 11.82L223.19 11.82Q222.84 12.50 222.36 12.82L222.36 12.82L222.36 12.82Q221.75 13.26 221.21 13.40L221.21 13.40L221.21 13.40Q220.68 13.55 219.93 13.55L219.93 13.55L219.93 13.55Q219.37 13.55 218.44 13.47L218.44 13.47L218.44 13.47Q217.52 13.40 217.42 13.40L217.42 13.40L217.42 13.40Q217.27 13.40 216.87 13.43L216.87 13.43L216.87 13.43Q216.47 13.45 216.22 13.45L216.22 13.45L216.02 13.45L216.02 13.45Q215.73 13.45 215.73 13.24L215.73 13.24L215.73 13.24Q215.73 13.05 215.88 13.05L215.88 13.05L215.88 13.05Q215.96 13.05 216.06 13.04L216.06 13.04L216.06 13.04Q216.16 13.03 216.20 13.03L216.20 13.03L216.20 13.03Q216.33 13.03 216.45 12.94L216.45 12.94L216.45 12.94Q216.57 12.85 216.69 12.54L216.69 12.54L216.69 12.54Q216.82 12.22 216.83 11.73L216.83 11.73L216.83 11.73Q216.87 10.82 216.87 7.36L216.87 7.36L216.87 4.98L216.87 4.98Q216.87 4.89 216.84 4.75L216.84 4.75L216.84 4.75Q216.80 4.62 216.70 4.40L216.70 4.40L216.70 4.40Q216.59 4.19 216.32 4.04L216.32 4.04L216.32 4.04Q216.05 3.89 215.64 3.89L215.64 3.89L215.64 3.89Q215.40 3.89 215.40 3.72ZM217.94 12.15L217.94 12.15L217.94 12.15Q217.94 12.99 219.31 12.99L219.31 12.99L219.63 12.99L219.63 12.99Q220.39 12.99 220.84 12.92L220.84 12.92L220.84 12.92Q221.49 12.81 221.92 12.24L221.92 12.24L221.92 12.24Q222.35 11.66 222.35 10.86L222.35 10.86L222.35 10.86Q222.35 10.18 222.10 9.68L222.10 9.68L222.10 9.68Q221.84 9.18 221.52 8.93L221.52 8.93L221.52 8.93Q221.20 8.68 220.76 8.54L220.76 8.54L220.76 8.54Q220.32 8.40 220.07 8.37L220.07 8.37L220.07 8.37Q219.83 8.34 219.60 8.34L219.60 8.34L219.60 8.34Q219.16 8.34 218.87 8.34L218.87 8.34L218.87 8.34Q218.58 8.33 218.50 8.33L218.50 8.33L218.50 8.33Q218.43 8.33 218.38 8.32L218.38 8.32L218.38 8.32Q218.33 8.32 218.30 8.32L218.30 8.32L218.30 8.32Q218.18 8.32 218.12 8.35L218.12 8.35L218.12 8.35Q218.06 8.39 218.01 8.62L218.01 8.62L218.01 8.62Q217.97 8.85 217.96 9.28L217.96 9.28L217.96 9.28Q217.95 9.72 217.95 10.58L217.95 10.58L217.95 10.70L217.95 10.70Q217.95 11.21 217.95 11.54L217.95 11.54L217.95 11.54Q217.95 11.86 217.94 11.99L217.94 11.99L217.94 11.99Q217.94 12.12 217.94 12.15ZM218.02 5.40L218.02 5.81L218.02 5.81Q218.02 6.51 218.03 6.90L218.03 6.90L218.03 6.90Q218.04 7.29 218.06 7.50L218.06 7.50L218.06 7.50Q218.09 7.71 218.12 7.77L218.12 7.77L218.12 7.77Q218.15 7.83 218.20 7.83L218.20 7.83L218.20 7.83Q218.60 7.87 218.92 7.87L218.92 7.87L219.81 7.87L219.81 7.87Q220.70 7.87 221.14 7.41L221.14 7.41L221.14 7.41Q221.58 6.94 221.58 6.22L221.58 6.22L221.58 6.22Q221.58 5.43 220.84 4.70L220.84 4.70L220.84 4.70Q220.11 3.96 218.75 3.96L218.75 3.96L218.75 3.96Q218.32 3.96 218.17 4.22L218.17 4.22L218.17 4.22Q218.02 4.48 218.02 5.40L218.02 5.40ZM231.22 3.65L231.22 3.65L231.22 3.65Q231.22 3.46 231.62 3.46L231.62 3.46L231.62 3.46Q231.67 3.46 231.80 3.47L231.80 3.47L231.80 3.47Q231.92 3.49 231.99 3.49L231.99 3.49L231.99 3.49Q232.04 3.49 233.31 3.52L233.31 3.52L233.31 3.52Q234.58 3.56 235.41 3.56L235.41 3.56L235.41 3.56Q235.70 3.56 236.86 3.53L236.86 3.53L236.86 3.53Q238.01 3.50 238.21 3.50L238.21 3.50L238.21 3.50Q238.48 3.50 238.48 3.82L238.48 3.82L238.48 3.82Q238.48 3.91 238.39 4.38L238.39 4.38L238.39 4.38Q238.31 4.84 238.31 5.25L238.31 5.25L238.31 5.25Q238.31 5.38 238.24 5.47L238.24 5.47L238.24 5.47Q238.17 5.56 238.08 5.56L238.08 5.56L238.08 5.56Q237.87 5.56 237.87 5.26L237.87 5.26L237.87 5.26Q237.87 4.89 237.64 4.58L237.64 4.58L237.64 4.58Q237.40 4.27 237.05 4.26L237.05 4.26L237.05 4.26Q235.79 4.16 235.12 4.16L235.12 4.16L234.75 4.16L234.75 4.16Q234.02 4.16 233.91 4.26L233.91 4.26L233.91 4.26Q233.79 4.37 233.76 5.01L233.76 5.01L233.76 5.01Q233.70 6.02 233.70 7.35L233.70 7.35L233.70 7.35Q233.70 8.05 233.97 8.06L233.97 8.06L234.32 8.06L234.91 8.06L235.34 8.06L235.34 8.06Q236.18 8.06 236.46 8.01L236.46 8.01L236.46 8.01Q236.74 7.95 236.96 7.80L236.96 7.80L236.96 7.80Q237.23 7.62 237.29 7.28L237.29 7.28L237.29 7.28Q237.33 7.04 237.48 7.04L237.48 7.04L237.48 7.04Q237.61 7.04 237.64 7.08L237.64 7.08L237.64 7.08Q237.66 7.13 237.66 7.27L237.66 7.27L237.66 7.27Q237.66 7.36 237.61 7.91L237.61 7.91L237.61 7.91Q237.55 8.46 237.55 8.74L237.55 8.74L237.55 8.74Q237.55 9.00 237.57 9.24L237.57 9.24L237.57 9.24Q237.59 9.48 237.59 9.59L237.59 9.59L237.59 9.59Q237.59 9.94 237.50 9.94L237.50 9.94L237.50 9.94Q237.29 9.94 237.19 9.60L237.19 9.60L237.19 9.60Q236.99 9.02 236.84 8.92L236.84 8.92L236.84 8.92Q236.54 8.72 235.49 8.72L235.49 8.72L235.49 8.72Q235.07 8.72 234.81 8.72L234.81 8.72L234.81 8.72Q234.56 8.72 234.48 8.71L234.48 8.71L234.48 8.71Q234.40 8.71 234.35 8.71L234.35 8.71L234.35 8.71Q234.30 8.71 234.26 8.71L234.26 8.71L234.26 8.71Q233.69 8.71 233.69 8.97L233.69 8.97L233.69 8.97Q233.69 9.38 233.67 9.99L233.67 9.99L233.67 9.99Q233.66 10.60 233.66 10.99L233.66 10.99L233.66 11.55L233.66 11.55Q233.66 12.56 234.00 12.66L234.00 12.66L234.00 12.66Q234.35 12.77 234.60 12.77L234.60 12.77L234.60 12.77Q235.65 12.77 236.44 12.67L236.44 12.67L236.44 12.67Q237.23 12.57 237.63 12.42L237.63 12.42L237.63 12.42Q238.03 12.28 238.29 12.10L238.29 12.10L238.29 12.10Q238.56 11.93 238.64 11.78L238.64 11.78L238.64 11.78Q238.71 11.63 238.79 11.54L238.79 11.54L238.79 11.54Q238.87 11.44 238.95 11.44L238.95 11.44L238.95 11.44Q239.12 11.44 239.12 11.68L239.12 11.68L239.12 11.68Q239.12 12.28 238.52 12.89L238.52 12.89L238.52 12.89Q237.92 13.51 237.47 13.51L237.47 13.51L237.47 13.51Q236.46 13.51 235.19 13.44L235.19 13.44L235.19 13.44Q233.93 13.37 233.62 13.37L233.62 13.37L233.62 13.37Q233.23 13.37 232.64 13.43L232.64 13.43L232.64 13.43Q232.05 13.50 231.71 13.50L231.71 13.50L231.71 13.50Q231.42 13.50 231.42 13.36L231.42 13.36L231.42 13.36Q231.42 13.23 231.42 13.19L231.42 13.19L231.42 13.19Q231.42 13.15 231.46 13.12L231.46 13.12L231.46 13.12Q231.50 13.09 231.55 13.08L231.55 13.08L231.55 13.08Q231.60 13.08 231.73 13.03L231.73 13.03L231.73 13.03Q231.87 12.99 232.02 12.92L232.02 12.92L232.02 12.92Q232.36 12.75 232.46 12.26L232.46 12.26L232.46 12.26Q232.57 11.77 232.57 10.21L232.57 10.21L232.57 8.47L232.57 8.47Q232.57 8.09 232.59 7.29L232.59 7.29L232.59 7.29Q232.61 6.50 232.61 6.05L232.61 6.05L232.61 6.05Q232.61 5.67 232.58 4.77L232.58 4.77L232.58 4.77Q232.57 4.37 232.23 4.14L232.23 4.14L232.23 4.14Q231.90 3.92 231.45 3.91L231.45 3.91L231.45 3.91Q231.22 3.91 231.22 3.65ZM246.68 13.24L246.68 13.24L246.68 13.24Q246.68 13.17 246.80 12.99L246.80 12.99L246.80 12.99Q246.92 12.81 247.20 12.39L247.20 12.39L247.20 12.39Q247.48 11.97 247.74 11.49L247.74 11.49L247.74 11.49Q248.14 10.79 249.23 8.99L249.23 8.99L249.23 8.99Q250.33 7.20 251.12 5.87L251.12 5.87L251.12 5.87Q251.90 4.55 251.90 4.40L251.90 4.40L251.90 4.40Q251.90 4.24 251.30 4.24L251.30 4.24L251.30 4.24Q250.81 4.24 248.74 4.30L248.74 4.30L248.74 4.30Q248.29 4.31 247.96 4.52L247.96 4.52L247.96 4.52Q247.63 4.73 247.50 4.98L247.50 4.98L247.50 4.98Q247.37 5.22 247.25 5.42L247.25 5.42L247.25 5.42Q247.14 5.63 247.07 5.63L247.07 5.63L247.07 5.63Q246.89 5.63 246.89 5.40L246.89 5.40L246.89 5.40Q246.89 5.12 246.95 4.84L246.95 4.84L246.95 4.84Q247.00 4.56 247.00 4.48L247.00 4.48L247.00 4.48Q247.00 4.41 247.07 3.82L247.07 3.82L247.07 3.82Q247.09 3.64 247.17 3.58L247.17 3.58L247.17 3.58Q247.25 3.53 247.46 3.53L247.46 3.53L247.46 3.53Q247.55 3.53 247.93 3.54L247.93 3.54L247.93 3.54Q248.32 3.56 249.00 3.56L249.00 3.56L249.00 3.56Q249.69 3.57 250.49 3.57L250.49 3.57L250.49 3.57Q251.37 3.57 251.91 3.56L251.91 3.56L251.91 3.56Q252.45 3.56 253.01 3.56L253.01 3.56L253.01 3.56Q253.61 3.56 253.61 3.77L253.61 3.77L253.61 3.77Q253.61 3.95 251.04 8.18L251.04 8.18L251.04 8.18Q248.47 12.40 248.47 12.54L248.47 12.54L248.47 12.54Q248.47 12.64 248.58 12.71L248.58 12.71L248.58 12.71Q248.70 12.77 248.97 12.79L248.97 12.79L248.97 12.79Q249.24 12.81 249.45 12.82L249.45 12.82L249.45 12.82Q249.66 12.82 250.10 12.82L250.10 12.82L250.10 12.82Q251.51 12.82 252.14 12.75L252.14 12.75L252.14 12.75Q252.77 12.67 253.27 12.39L253.27 12.39L253.27 12.39Q253.44 12.29 253.56 12.17L253.56 12.17L253.56 12.17Q253.68 12.04 253.75 11.97L253.75 11.97L253.75 11.97Q253.82 11.90 253.89 11.90L253.89 11.90L253.89 11.90Q254.00 11.90 254.00 12.05L254.00 12.05L254.00 12.05Q254.00 12.31 253.57 13.01L253.57 13.01L253.57 13.01Q253.54 13.05 253.50 13.13L253.50 13.13L253.50 13.13Q253.46 13.20 253.43 13.23L253.43 13.23L253.43 13.23Q253.41 13.26 253.37 13.31L253.37 13.31L253.37 13.31Q253.33 13.37 253.28 13.39L253.28 13.39L253.28 13.39Q253.23 13.41 253.15 13.43L253.15 13.43L253.15 13.43Q253.08 13.44 252.98 13.44L252.98 13.44L252.98 13.44Q252.20 13.44 251.59 13.45L251.59 13.45L251.59 13.45Q250.98 13.45 250.42 13.45L250.42 13.45L250.42 13.45Q248.30 13.45 247.76 13.46L247.76 13.46L247.76 13.46Q247.23 13.47 246.96 13.47L246.96 13.47L246.96 13.47Q246.68 13.47 246.68 13.24ZM261.56 3.72L261.56 3.72L261.56 3.72Q261.56 3.50 261.88 3.50L261.88 3.50L261.88 3.50Q261.93 3.50 262.04 3.49L262.04 3.49L262.04 3.49Q262.15 3.49 262.40 3.49L262.40 3.49L262.40 3.49Q262.47 3.49 262.79 3.51L262.79 3.51L262.79 3.51Q263.10 3.53 263.24 3.53L263.24 3.53L263.24 3.53Q263.55 3.53 264.43 3.51L264.43 3.51L264.43 3.51Q265.31 3.49 265.55 3.49L265.55 3.49L265.55 3.49Q266.87 3.49 267.82 4.15L267.82 4.15L267.82 4.15Q268.77 4.82 268.77 6.06L268.77 6.06L268.77 6.06Q268.77 6.75 268.52 7.29L268.52 7.29L268.52 7.29Q268.27 7.83 267.91 8.13L267.91 8.13L267.91 8.13Q267.55 8.44 267.11 8.64L267.11 8.64L267.11 8.64Q266.67 8.85 266.33 8.91L266.33 8.91L266.33 8.91Q265.99 8.97 265.72 8.97L265.72 8.97L265.72 8.97Q265.27 8.97 264.81 8.87L264.81 8.87L264.81 8.87Q264.35 8.76 264.35 8.65L264.35 8.65L264.35 8.65Q264.35 8.44 264.53 8.44L264.53 8.44L264.53 8.44Q264.60 8.44 264.82 8.50L264.82 8.50L264.82 8.50Q265.03 8.55 265.24 8.55L265.24 8.55L265.24 8.55Q265.57 8.55 265.93 8.46L265.93 8.46L265.93 8.46Q266.29 8.37 266.69 8.17L266.69 8.17L266.69 8.17Q267.08 7.97 267.33 7.55L267.33 7.55L267.33 7.55Q267.58 7.14 267.58 6.59L267.58 6.59L267.58 6.59Q267.58 5.66 266.83 4.85L266.83 4.85L266.83 4.85Q266.07 4.05 264.74 4.05L264.74 4.05L264.74 4.05Q264.31 4.05 264.15 4.30L264.15 4.30L264.15 4.30Q264.00 4.56 264.00 5.47L264.00 5.47L264.00 5.47Q264.00 8.39 263.98 8.80L263.98 8.80L263.98 8.80Q263.97 9.21 263.97 11.26L263.97 11.26L263.97 11.26Q263.97 12.49 264.54 12.87L264.54 12.87L264.54 12.87Q264.70 12.96 264.93 12.99L264.93 12.99L264.93 12.99Q265.16 13.02 265.31 13.01L265.31 13.01L265.31 13.01Q265.47 13.01 265.59 13.07L265.59 13.07L265.59 13.07Q265.71 13.13 265.71 13.30L265.71 13.30L265.71 13.30Q265.71 13.54 265.38 13.54L265.38 13.54L265.38 13.54Q265.06 13.54 264.25 13.50L264.25 13.50L264.25 13.50Q263.44 13.47 263.38 13.47L263.38 13.47L263.38 13.47Q263.24 13.47 262.83 13.50L262.83 13.50L262.83 13.50Q262.42 13.52 262.08 13.52L262.08 13.52L262.08 13.52Q261.65 13.52 261.65 13.37L261.65 13.37L261.65 13.37Q261.65 13.29 261.67 13.23L261.67 13.23L261.67 13.23Q261.69 13.17 261.71 13.14L261.71 13.14L261.71 13.14Q261.73 13.10 261.80 13.08L261.80 13.08L261.80 13.08Q261.87 13.05 261.90 13.03L261.90 13.03L261.90 13.03Q261.93 13.02 262.03 13.00L262.03 13.00L262.03 13.00Q262.14 12.98 262.18 12.96L262.18 12.96L262.18 12.96Q262.21 12.95 262.26 12.94L262.26 12.94L262.26 12.94Q262.32 12.94 262.34 12.93L262.34 12.93L262.34 12.93Q262.36 12.92 262.41 12.89L262.41 12.89L262.41 12.89Q262.46 12.85 262.49 12.79L262.49 12.79L262.49 12.79Q262.51 12.73 262.56 12.62L262.56 12.62L262.56 12.62Q262.61 12.52 262.67 12.35L262.67 12.35L262.67 12.35Q262.77 12.08 262.82 10.25L262.82 10.25L262.82 10.25Q262.88 8.41 262.88 7.41L262.88 7.41L262.88 7.41Q262.88 6.54 262.87 5.80L262.87 5.80L262.87 5.80Q262.86 5.07 262.86 5.03L262.86 5.03L262.86 5.03Q262.86 4.65 262.63 4.28L262.63 4.28L262.63 4.28Q262.39 3.91 261.84 3.91L261.84 3.91L261.84 3.91Q261.56 3.91 261.56 3.72ZM276.46 3.71L276.46 3.71L276.46 3.71Q276.46 3.50 276.85 3.50L276.85 3.50L276.85 3.50Q276.99 3.50 277.49 3.53L277.49 3.53L277.49 3.53Q278.00 3.56 278.43 3.56L278.43 3.56L278.43 3.56Q278.70 3.56 278.94 3.54L278.94 3.54L278.94 3.54Q279.19 3.53 279.66 3.53L279.66 3.53L279.66 3.53Q280.04 3.53 280.04 3.72L280.04 3.72L280.04 3.72Q280.04 3.84 279.40 4.10L279.40 4.10L279.40 4.10Q278.95 4.28 278.95 5.71L278.95 5.71L278.95 5.71Q278.95 7.60 278.93 9.05L278.93 9.05L278.93 9.05Q278.91 10.50 278.91 10.89L278.91 10.89L278.91 10.89Q278.91 12.07 279.26 12.59L279.26 12.59L279.26 12.59Q279.57 13.02 279.93 13.02L279.93 13.02L279.93 13.02Q279.96 13.02 280.07 13.03L280.07 13.03L280.07 13.03Q280.18 13.03 280.21 13.03L280.21 13.03L280.21 13.03Q280.31 13.03 280.41 13.08L280.41 13.08L280.41 13.08Q280.50 13.13 280.50 13.19L280.50 13.19L280.50 13.19Q280.50 13.34 280.43 13.39L280.43 13.39L280.43 13.39Q280.35 13.44 280.15 13.44L280.15 13.44L280.15 13.44Q279.73 13.44 279.38 13.41L279.38 13.41L279.38 13.41Q279.02 13.38 278.82 13.38L278.82 13.38L278.82 13.38Q278.43 13.38 277.97 13.42L277.97 13.42L277.97 13.42Q277.51 13.45 277.28 13.45L277.28 13.45L277.28 13.45Q276.65 13.45 276.65 13.24L276.65 13.24L276.65 13.24Q276.65 13.12 276.79 13.07L276.79 13.07L276.79 13.07Q276.92 13.02 277.09 13.00L277.09 13.00L277.09 13.00Q277.26 12.98 277.44 12.82L277.44 12.82L277.44 12.82Q277.62 12.66 277.69 12.35L277.69 12.35L277.69 12.35Q277.72 12.25 277.78 10.76L277.78 10.76L277.78 10.76Q277.84 9.27 277.84 8.61L277.84 8.61L277.84 7.81L277.84 7.81Q277.84 7.63 277.85 7.12L277.85 7.12L277.85 7.12Q277.86 6.61 277.86 6.30L277.86 6.30L277.86 5.66L277.86 5.66Q277.86 5.04 277.80 4.63L277.80 4.63L277.80 4.63Q277.76 4.30 277.43 4.12L277.43 4.12L277.43 4.12Q277.10 3.93 276.75 3.92L276.75 3.92L276.75 3.92Q276.46 3.91 276.46 3.71ZM288.05 3.65L288.05 3.65L288.05 3.65Q288.05 3.46 288.44 3.46L288.44 3.46L288.44 3.46Q288.50 3.46 288.62 3.47L288.62 3.47L288.62 3.47Q288.75 3.49 288.82 3.49L288.82 3.49L288.82 3.49Q288.86 3.49 290.14 3.52L290.14 3.52L290.14 3.52Q291.41 3.56 292.24 3.56L292.24 3.56L292.24 3.56Q292.53 3.56 293.69 3.53L293.69 3.53L293.69 3.53Q294.84 3.50 295.04 3.50L295.04 3.50L295.04 3.50Q295.30 3.50 295.30 3.82L295.30 3.82L295.30 3.82Q295.30 3.91 295.22 4.38L295.22 4.38L295.22 4.38Q295.13 4.84 295.13 5.25L295.13 5.25L295.13 5.25Q295.13 5.38 295.06 5.47L295.06 5.47L295.06 5.47Q294.99 5.56 294.91 5.56L294.91 5.56L294.91 5.56Q294.70 5.56 294.70 5.26L294.70 5.26L294.70 5.26Q294.70 4.89 294.46 4.58L294.46 4.58L294.46 4.58Q294.22 4.27 293.87 4.26L293.87 4.26L293.87 4.26Q292.61 4.16 291.94 4.16L291.94 4.16L291.58 4.16L291.58 4.16Q290.85 4.16 290.73 4.26L290.73 4.26L290.73 4.26Q290.61 4.37 290.58 5.01L290.58 5.01L290.58 5.01Q290.53 6.02 290.53 7.35L290.53 7.35L290.53 7.35Q290.53 8.05 290.79 8.06L290.79 8.06L291.14 8.06L291.73 8.06L292.17 8.06L292.17 8.06Q293.01 8.06 293.29 8.01L293.29 8.01L293.29 8.01Q293.57 7.95 293.79 7.80L293.79 7.80L293.79 7.80Q294.06 7.62 294.11 7.28L294.11 7.28L294.11 7.28Q294.15 7.04 294.31 7.04L294.31 7.04L294.31 7.04Q294.43 7.04 294.46 7.08L294.46 7.08L294.46 7.08Q294.49 7.13 294.49 7.27L294.49 7.27L294.49 7.27Q294.49 7.36 294.43 7.91L294.43 7.91L294.43 7.91Q294.38 8.46 294.38 8.74L294.38 8.74L294.38 8.74Q294.38 9.00 294.40 9.24L294.40 9.24L294.40 9.24Q294.42 9.48 294.42 9.59L294.42 9.59L294.42 9.59Q294.42 9.94 294.32 9.94L294.32 9.94L294.32 9.94Q294.11 9.94 294.01 9.60L294.01 9.60L294.01 9.60Q293.82 9.02 293.66 8.92L293.66 8.92L293.66 8.92Q293.37 8.72 292.32 8.72L292.32 8.72L292.32 8.72Q291.90 8.72 291.64 8.72L291.64 8.72L291.64 8.72Q291.38 8.72 291.31 8.71L291.31 8.71L291.31 8.71Q291.23 8.71 291.18 8.71L291.18 8.71L291.18 8.71Q291.13 8.71 291.09 8.71L291.09 8.71L291.09 8.71Q290.51 8.71 290.51 8.97L290.51 8.97L290.51 8.97Q290.51 9.38 290.50 9.99L290.50 9.99L290.50 9.99Q290.49 10.60 290.49 10.99L290.49 10.99L290.49 11.55L290.49 11.55Q290.49 12.56 290.82 12.66L290.82 12.66L290.82 12.66Q291.17 12.77 291.42 12.77L291.42 12.77L291.42 12.77Q292.47 12.77 293.26 12.67L293.26 12.67L293.26 12.67Q294.06 12.57 294.45 12.42L294.45 12.42L294.45 12.42Q294.85 12.28 295.12 12.10L295.12 12.10L295.12 12.10Q295.39 11.93 295.46 11.78L295.46 11.78L295.46 11.78Q295.54 11.63 295.62 11.54L295.62 11.54L295.62 11.54Q295.69 11.44 295.78 11.44L295.78 11.44L295.78 11.44Q295.95 11.44 295.95 11.68L295.95 11.68L295.95 11.68Q295.95 12.28 295.34 12.89L295.34 12.89L295.34 12.89Q294.74 13.51 294.29 13.51L294.29 13.51L294.29 13.51Q293.29 13.51 292.02 13.44L292.02 13.44L292.02 13.44Q290.75 13.37 290.44 13.37L290.44 13.37L290.44 13.37Q290.05 13.37 289.46 13.43L289.46 13.43L289.46 13.43Q288.88 13.50 288.54 13.50L288.54 13.50L288.54 13.50Q288.25 13.50 288.25 13.36L288.25 13.36L288.25 13.36Q288.25 13.23 288.25 13.19L288.25 13.19L288.25 13.19Q288.25 13.15 288.29 13.12L288.29 13.12L288.29 13.12Q288.33 13.09 288.38 13.08L288.38 13.08L288.38 13.08Q288.43 13.08 288.56 13.03L288.56 13.03L288.56 13.03Q288.69 12.99 288.85 12.92L288.85 12.92L288.85 12.92Q289.18 12.75 289.29 12.26L289.29 12.26L289.29 12.26Q289.39 11.77 289.39 10.21L289.39 10.21L289.39 8.47L289.39 8.47Q289.39 8.09 289.41 7.29L289.41 7.29L289.41 7.29Q289.44 6.50 289.44 6.05L289.44 6.05L289.44 6.05Q289.44 5.67 289.41 4.77L289.41 4.77L289.41 4.77Q289.39 4.37 289.06 4.14L289.06 4.14L289.06 4.14Q288.72 3.92 288.27 3.91L288.27 3.91L288.27 3.91Q288.05 3.91 288.05 3.65ZM303.84 8.90L303.84 8.90L303.84 8.90Q303.84 7.38 304.43 6.16L304.43 6.16L304.43 6.16Q305.02 4.94 306.24 4.19L306.24 4.19L306.24 4.19Q307.47 3.44 309.15 3.44L309.15 3.44L309.15 3.44Q310.00 3.44 310.87 3.70L310.87 3.70L310.87 3.70Q311.74 3.95 312.26 4.20L312.26 4.20L312.77 4.47L312.77 4.47Q312.82 4.47 312.91 4.40L312.91 4.40L312.91 4.40Q313.01 4.33 313.07 4.33L313.07 4.33L313.07 4.33Q313.14 4.33 313.21 4.38L313.21 4.38L313.21 4.38Q313.28 4.44 313.28 4.55L313.28 4.55L313.28 4.55Q313.29 4.96 313.34 5.41L313.34 5.41L313.34 5.41Q313.39 5.87 313.43 6.16L313.43 6.16L313.43 6.16Q313.47 6.45 313.47 6.51L313.47 6.51L313.47 6.51Q313.47 6.76 313.31 6.76L313.31 6.76L313.31 6.76Q313.18 6.76 313.07 6.57L313.07 6.57L313.07 6.57Q311.71 4.02 309.15 4.02L309.15 4.02L309.15 4.02Q307.40 4.02 306.28 5.14L306.28 5.14L306.28 5.14Q305.16 6.26 305.16 8.06L305.16 8.06L305.16 8.06Q305.16 9.06 305.42 9.93L305.42 9.93L305.42 9.93Q305.68 10.79 306.20 11.51L306.20 11.51L306.20 11.51Q306.73 12.24 307.65 12.66L307.65 12.66L307.65 12.66Q308.57 13.08 309.81 13.08L309.81 13.08L309.81 13.08Q311.82 13.08 313.19 10.98L313.19 10.98L313.19 10.98Q313.25 10.88 313.40 10.88L313.40 10.88L313.40 10.88Q313.53 10.88 313.53 11.07L313.53 11.07L313.53 11.07Q313.53 11.23 313.48 11.49L313.48 11.49L313.48 11.49Q313.43 11.75 313.36 12.06L313.36 12.06L313.36 12.06Q313.29 12.38 313.28 12.45L313.28 12.45L313.28 12.45Q313.25 12.60 313.05 12.70L313.05 12.70L313.05 12.70Q312.30 13.06 311.87 13.24L311.87 13.24L311.87 13.24Q311.44 13.43 310.79 13.57L310.79 13.57L310.79 13.57Q310.13 13.72 309.44 13.72L309.44 13.72L309.44 13.72Q308.22 13.72 307.24 13.43L307.24 13.43L307.24 13.43Q306.26 13.13 305.64 12.66L305.64 12.66L305.64 12.66Q305.02 12.18 304.60 11.54L304.60 11.54L304.60 11.54Q304.18 10.91 304.01 10.25L304.01 10.25L304.01 10.25Q303.84 9.60 303.84 8.90ZM321.80 13.24L321.80 13.24L321.80 13.24Q321.80 13.17 321.92 12.99L321.92 12.99L321.92 12.99Q322.04 12.81 322.32 12.39L322.32 12.39L322.32 12.39Q322.60 11.97 322.87 11.49L322.87 11.49L322.87 11.49Q323.26 10.79 324.36 8.99L324.36 8.99L324.36 8.99Q325.46 7.20 326.24 5.87L326.24 5.87L326.24 5.87Q327.03 4.55 327.03 4.40L327.03 4.40L327.03 4.40Q327.03 4.24 326.42 4.24L326.42 4.24L326.42 4.24Q325.93 4.24 323.86 4.30L323.86 4.30L323.86 4.30Q323.41 4.31 323.08 4.52L323.08 4.52L323.08 4.52Q322.76 4.73 322.62 4.98L322.62 4.98L322.62 4.98Q322.49 5.22 322.38 5.42L322.38 5.42L322.38 5.42Q322.27 5.63 322.20 5.63L322.20 5.63L322.20 5.63Q322.01 5.63 322.01 5.40L322.01 5.40L322.01 5.40Q322.01 5.12 322.07 4.84L322.07 4.84L322.07 4.84Q322.13 4.56 322.13 4.48L322.13 4.48L322.13 4.48Q322.13 4.41 322.20 3.82L322.20 3.82L322.20 3.82Q322.21 3.64 322.29 3.58L322.29 3.58L322.29 3.58Q322.38 3.53 322.59 3.53L322.59 3.53L322.59 3.53Q322.67 3.53 323.06 3.54L323.06 3.54L323.06 3.54Q323.44 3.56 324.13 3.56L324.13 3.56L324.13 3.56Q324.81 3.57 325.61 3.57L325.61 3.57L325.61 3.57Q326.49 3.57 327.03 3.56L327.03 3.56L327.03 3.56Q327.57 3.56 328.13 3.56L328.13 3.56L328.13 3.56Q328.73 3.56 328.73 3.77L328.73 3.77L328.73 3.77Q328.73 3.95 326.17 8.18L326.17 8.18L326.17 8.18Q323.60 12.40 323.60 12.54L323.60 12.54L323.60 12.54Q323.60 12.64 323.71 12.71L323.71 12.71L323.71 12.71Q323.82 12.77 324.09 12.79L324.09 12.79L324.09 12.79Q324.37 12.81 324.58 12.82L324.58 12.82L324.58 12.82Q324.79 12.82 325.22 12.82L325.22 12.82L325.22 12.82Q326.63 12.82 327.26 12.75L327.26 12.75L327.26 12.75Q327.89 12.67 328.40 12.39L328.40 12.39L328.40 12.39Q328.57 12.29 328.69 12.17L328.69 12.17L328.69 12.17Q328.80 12.04 328.87 11.97L328.87 11.97L328.87 11.97Q328.94 11.90 329.01 11.90L329.01 11.90L329.01 11.90Q329.13 11.90 329.13 12.05L329.13 12.05L329.13 12.05Q329.13 12.31 328.69 13.01L328.69 13.01L328.69 13.01Q328.66 13.05 328.62 13.13L328.62 13.13L328.62 13.13Q328.58 13.20 328.56 13.23L328.56 13.23L328.56 13.23Q328.54 13.26 328.50 13.31L328.50 13.31L328.50 13.31Q328.45 13.37 328.40 13.39L328.40 13.39L328.40 13.39Q328.36 13.41 328.28 13.43L328.28 13.43L328.28 13.43Q328.20 13.44 328.10 13.44L328.10 13.44L328.10 13.44Q327.32 13.44 326.71 13.45L326.71 13.45L326.71 13.45Q326.10 13.45 325.54 13.45L325.54 13.45L325.54 13.45Q323.43 13.45 322.89 13.46L322.89 13.46L322.89 13.46Q322.35 13.47 322.08 13.47L322.08 13.47L322.08 13.47Q321.80 13.47 321.80 13.24ZM336.69 3.77L336.69 3.77L336.69 3.77Q336.69 3.68 336.78 3.60L336.78 3.60L336.78 3.60Q336.88 3.53 337.04 3.53L337.04 3.53L337.04 3.53Q337.12 3.53 337.32 3.54L337.32 3.54L337.32 3.54Q337.51 3.54 337.57 3.54L337.57 3.54L337.57 3.54Q337.78 3.54 337.96 3.53L337.96 3.53L337.96 3.53Q338.14 3.51 338.25 3.51L338.25 3.51L338.25 3.51Q338.38 3.51 338.55 3.59L338.55 3.59L338.55 3.59Q338.72 3.67 338.74 3.75L338.74 3.75L338.74 3.75Q338.77 3.79 338.90 3.94L338.90 3.94L338.90 3.94Q339.02 4.09 339.23 4.33L339.23 4.33L339.23 4.33Q339.44 4.56 339.61 4.79L339.61 4.79L339.61 4.79Q341.52 7.27 344.71 10.77L344.71 10.77L344.71 10.77Q344.79 10.86 344.91 10.99L344.91 10.99L344.91 10.99Q345.03 11.12 345.08 11.18L345.08 11.18L345.08 11.18Q345.13 11.24 345.18 11.30L345.18 11.30L345.18 11.30Q345.24 11.35 345.27 11.38L345.27 11.38L345.27 11.38Q345.31 11.40 345.34 11.40L345.34 11.40L345.34 11.40Q345.48 11.40 345.48 10.53L345.48 10.53L345.48 8.89L345.48 8.89Q345.48 7.95 345.47 7.31L345.47 7.31L345.47 7.31Q345.46 6.66 345.46 6.38L345.46 6.38L345.46 6.38Q345.45 6.09 345.45 6.02L345.45 6.02L345.45 5.92L345.45 5.92Q345.45 5.45 345.39 5.11L345.39 5.11L345.39 5.11Q345.32 4.77 345.24 4.59L345.24 4.59L345.24 4.59Q345.16 4.41 345.00 4.28L345.00 4.28L345.00 4.28Q344.83 4.16 344.72 4.12L344.72 4.12L344.72 4.12Q344.61 4.09 344.40 4.05L344.40 4.05L344.40 4.05Q344.19 4.00 344.11 3.98L344.11 3.98L344.11 3.98Q343.83 3.89 343.83 3.74L343.83 3.74L343.83 3.74Q343.83 3.53 344.09 3.53L344.09 3.53L344.09 3.53Q344.18 3.53 344.76 3.54L344.76 3.54L344.76 3.54Q345.35 3.54 345.42 3.54L345.42 3.54L345.42 3.54Q345.76 3.54 346.17 3.53L346.17 3.53L346.17 3.53Q346.58 3.51 346.68 3.51L346.68 3.51L346.68 3.51Q346.92 3.51 347.01 3.56L347.01 3.56L347.01 3.56Q347.10 3.61 347.10 3.75L347.10 3.75L347.10 3.75Q347.10 3.81 347.02 3.86L347.02 3.86L347.02 3.86Q346.95 3.91 346.86 3.94L346.86 3.94L346.86 3.94Q346.78 3.98 346.70 4.00L346.70 4.00L346.61 4.03L346.61 4.03Q346.15 4.28 346.15 5.61L346.15 5.61L346.15 6.15L346.15 6.15Q346.15 7.21 346.07 9.83L346.07 9.83L346.07 9.83Q346.00 12.46 346.00 13.08L346.00 13.08L346.00 13.36L346.00 13.36Q346.00 13.68 345.80 13.68L345.80 13.68L345.80 13.68Q345.67 13.68 345.58 13.58L345.58 13.58L345.58 13.58Q340.93 8.19 340.03 7.17L340.03 7.17L340.03 7.17Q339.12 6.16 339.02 6.16L339.02 6.16L339.02 6.16Q338.88 6.16 338.88 7.11L338.88 7.11L338.88 7.11Q338.88 8.44 338.83 9.97L338.83 9.97L338.83 9.97Q338.77 11.51 338.77 11.65L338.77 11.65L338.77 11.65Q338.77 12.28 338.99 12.61L338.99 12.61L338.99 12.61Q339.21 12.94 339.46 12.98L339.46 12.98L339.46 12.98Q339.71 13.02 339.93 13.07L339.93 13.07L339.93 13.07Q340.14 13.12 340.14 13.26L340.14 13.26L340.14 13.26Q340.14 13.41 340.10 13.45L340.10 13.45L340.10 13.45Q340.05 13.50 339.92 13.50L339.92 13.50L339.92 13.50Q339.82 13.50 339.48 13.48L339.48 13.48L339.48 13.48Q339.14 13.47 338.42 13.47L338.42 13.47L338.42 13.47Q338.30 13.47 337.90 13.48L337.90 13.48L337.90 13.48Q337.51 13.50 337.23 13.50L337.23 13.50L337.23 13.50Q336.92 13.50 336.92 13.27L336.92 13.27L336.92 13.27Q336.92 13.15 337.11 13.11L337.11 13.11L337.11 13.11Q337.29 13.08 337.55 12.89L337.55 12.89L337.55 12.89Q337.82 12.71 337.96 12.21L337.96 12.21L337.96 12.21Q338.04 11.89 338.17 9.60L338.17 9.60L338.17 9.60Q338.30 7.32 338.30 6.45L338.30 6.45L338.30 6.45Q338.30 5.25 337.96 4.65L337.96 4.65L337.96 4.65Q337.62 4.06 336.87 3.98L336.87 3.98L336.87 3.98Q336.69 3.96 336.69 3.77ZM354.86 3.71L354.86 3.71L354.86 3.71Q354.86 3.50 355.25 3.50L355.25 3.50L355.25 3.50Q355.39 3.50 355.89 3.53L355.89 3.53L355.89 3.53Q356.40 3.56 356.83 3.56L356.83 3.56L356.83 3.56Q357.10 3.56 357.34 3.54L357.34 3.54L357.34 3.54Q357.59 3.53 358.06 3.53L358.06 3.53L358.06 3.53Q358.44 3.53 358.44 3.72L358.44 3.72L358.44 3.72Q358.44 3.84 357.80 4.10L357.80 4.10L357.80 4.10Q357.35 4.28 357.35 5.71L357.35 5.71L357.35 5.71Q357.35 7.60 357.33 9.05L357.33 9.05L357.33 9.05Q357.31 10.50 357.31 10.89L357.31 10.89L357.31 10.89Q357.31 12.07 357.66 12.59L357.66 12.59L357.66 12.59Q357.97 13.02 358.33 13.02L358.33 13.02L358.33 13.02Q358.36 13.02 358.47 13.03L358.47 13.03L358.47 13.03Q358.58 13.03 358.61 13.03L358.61 13.03L358.61 13.03Q358.71 13.03 358.81 13.08L358.81 13.08L358.81 13.08Q358.90 13.13 358.90 13.19L358.90 13.19L358.90 13.19Q358.90 13.34 358.83 13.39L358.83 13.39L358.83 13.39Q358.75 13.44 358.55 13.44L358.55 13.44L358.55 13.44Q358.13 13.44 357.78 13.41L357.78 13.41L357.78 13.41Q357.42 13.38 357.22 13.38L357.22 13.38L357.22 13.38Q356.83 13.38 356.37 13.42L356.37 13.42L356.37 13.42Q355.91 13.45 355.68 13.45L355.68 13.45L355.68 13.45Q355.05 13.45 355.05 13.24L355.05 13.24L355.05 13.24Q355.05 13.12 355.19 13.07L355.19 13.07L355.19 13.07Q355.32 13.02 355.49 13.00L355.49 13.00L355.49 13.00Q355.66 12.98 355.84 12.82L355.84 12.82L355.84 12.82Q356.02 12.66 356.09 12.35L356.09 12.35L356.09 12.35Q356.12 12.25 356.18 10.76L356.18 10.76L356.18 10.76Q356.24 9.27 356.24 8.61L356.24 8.61L356.24 7.81L356.24 7.81Q356.24 7.63 356.25 7.12L356.25 7.12L356.25 7.12Q356.26 6.61 356.26 6.30L356.26 6.30L356.26 5.66L356.26 5.66Q356.26 5.04 356.20 4.63L356.20 4.63L356.20 4.63Q356.16 4.30 355.83 4.12L355.83 4.12L355.83 4.12Q355.50 3.93 355.15 3.92L355.15 3.92L355.15 3.92Q354.86 3.91 354.86 3.71ZM366.45 3.65L366.45 3.65L366.45 3.65Q366.45 3.46 366.84 3.46L366.84 3.46L366.84 3.46Q366.90 3.46 367.02 3.47L367.02 3.47L367.02 3.47Q367.15 3.49 367.22 3.49L367.22 3.49L367.22 3.49Q367.26 3.49 368.54 3.52L368.54 3.52L368.54 3.52Q369.81 3.56 370.64 3.56L370.64 3.56L370.64 3.56Q370.93 3.56 372.09 3.53L372.09 3.53L372.09 3.53Q373.24 3.50 373.44 3.50L373.44 3.50L373.44 3.50Q373.70 3.50 373.70 3.82L373.70 3.82L373.70 3.82Q373.70 3.91 373.62 4.38L373.62 4.38L373.62 4.38Q373.53 4.84 373.53 5.25L373.53 5.25L373.53 5.25Q373.53 5.38 373.46 5.47L373.46 5.47L373.46 5.47Q373.39 5.56 373.31 5.56L373.31 5.56L373.31 5.56Q373.10 5.56 373.10 5.26L373.10 5.26L373.10 5.26Q373.10 4.89 372.86 4.58L372.86 4.58L372.86 4.58Q372.62 4.27 372.27 4.26L372.27 4.26L372.27 4.26Q371.01 4.16 370.34 4.16L370.34 4.16L369.98 4.16L369.98 4.16Q369.25 4.16 369.13 4.26L369.13 4.26L369.13 4.26Q369.01 4.37 368.98 5.01L368.98 5.01L368.98 5.01Q368.93 6.02 368.93 7.35L368.93 7.35L368.93 7.35Q368.93 8.05 369.19 8.06L369.19 8.06L369.54 8.06L370.13 8.06L370.57 8.06L370.57 8.06Q371.41 8.06 371.69 8.01L371.69 8.01L371.69 8.01Q371.97 7.95 372.19 7.80L372.19 7.80L372.19 7.80Q372.46 7.62 372.51 7.28L372.51 7.28L372.51 7.28Q372.55 7.04 372.71 7.04L372.71 7.04L372.71 7.04Q372.83 7.04 372.86 7.08L372.86 7.08L372.86 7.08Q372.89 7.13 372.89 7.27L372.89 7.27L372.89 7.27Q372.89 7.36 372.83 7.91L372.83 7.91L372.83 7.91Q372.78 8.46 372.78 8.74L372.78 8.74L372.78 8.74Q372.78 9.00 372.80 9.24L372.80 9.24L372.80 9.24Q372.82 9.48 372.82 9.59L372.82 9.59L372.82 9.59Q372.82 9.94 372.72 9.94L372.72 9.94L372.72 9.94Q372.51 9.94 372.41 9.60L372.41 9.60L372.41 9.60Q372.22 9.02 372.06 8.92L372.06 8.92L372.06 8.92Q371.77 8.72 370.72 8.72L370.72 8.72L370.72 8.72Q370.30 8.72 370.04 8.72L370.04 8.72L370.04 8.72Q369.78 8.72 369.71 8.71L369.71 8.71L369.71 8.71Q369.63 8.71 369.58 8.71L369.58 8.71L369.58 8.71Q369.53 8.71 369.49 8.71L369.49 8.71L369.49 8.71Q368.91 8.71 368.91 8.97L368.91 8.97L368.91 8.97Q368.91 9.38 368.90 9.99L368.90 9.99L368.90 9.99Q368.89 10.60 368.89 10.99L368.89 10.99L368.89 11.55L368.89 11.55Q368.89 12.56 369.22 12.66L369.22 12.66L369.22 12.66Q369.57 12.77 369.82 12.77L369.82 12.77L369.82 12.77Q370.87 12.77 371.67 12.67L371.67 12.67L371.67 12.67Q372.46 12.57 372.86 12.42L372.86 12.42L372.86 12.42Q373.25 12.28 373.52 12.10L373.52 12.10L373.52 12.10Q373.79 11.93 373.86 11.78L373.86 11.78L373.86 11.78Q373.94 11.63 374.02 11.54L374.02 11.54L374.02 11.54Q374.09 11.44 374.18 11.44L374.18 11.44L374.18 11.44Q374.35 11.44 374.35 11.68L374.35 11.68L374.35 11.68Q374.35 12.28 373.74 12.89L373.74 12.89L373.74 12.89Q373.14 13.51 372.69 13.51L372.69 13.51L372.69 13.51Q371.69 13.51 370.42 13.44L370.42 13.44L370.42 13.44Q369.15 13.37 368.84 13.37L368.84 13.37L368.84 13.37Q368.45 13.37 367.86 13.43L367.86 13.43L367.86 13.43Q367.28 13.50 366.94 13.50L366.94 13.50L366.94 13.50Q366.65 13.50 366.65 13.36L366.65 13.36L366.65 13.36Q366.65 13.23 366.65 13.19L366.65 13.19L366.65 13.19Q366.65 13.15 366.69 13.12L366.69 13.12L366.69 13.12Q366.73 13.09 366.78 13.08L366.78 13.08L366.78 13.08Q366.83 13.08 366.96 13.03L366.96 13.03L366.96 13.03Q367.09 12.99 367.25 12.92L367.25 12.92L367.25 12.92Q367.58 12.75 367.69 12.26L367.69 12.26L367.69 12.26Q367.79 11.77 367.79 10.21L367.79 10.21L367.79 8.47L367.79 8.47Q367.79 8.09 367.81 7.29L367.81 7.29L367.81 7.29Q367.84 6.50 367.84 6.05L367.84 6.05L367.84 6.05Q367.84 5.67 367.81 4.77L367.81 4.77L367.81 4.77Q367.79 4.37 367.46 4.14L367.46 4.14L367.46 4.14Q367.12 3.92 366.67 3.91L366.67 3.91L366.67 3.91Q366.45 3.91 366.45 3.65ZM381.00 15.60L381.00 15.60L381.00 15.60Q381.00 15.39 381.16 15.11L381.16 15.11L381.16 15.11Q381.32 14.83 381.43 14.83L381.43 14.83L381.43 14.83Q381.51 14.83 381.73 15.06L381.73 15.06L381.73 15.06Q381.95 15.30 382.24 15.30L382.24 15.30L382.24 15.30Q383.01 15.30 383.21 14.21L383.21 14.21L383.21 14.21Q383.39 13.26 383.39 12.52L383.39 12.52L383.39 12.52Q383.39 12.36 383.39 11.94L383.39 11.94L383.39 11.94Q383.39 11.52 383.39 11.16L383.39 11.16L383.38 10.79L383.38 10.79Q383.38 10.51 383.37 10.30L383.37 10.30L383.37 10.30Q383.36 10.09 383.36 9.86L383.36 9.86L383.36 9.86Q383.35 9.62 383.34 8.64L383.34 8.64L383.34 8.64Q383.33 7.66 383.33 6.02L383.33 6.02L383.33 6.02Q383.33 5.12 383.28 4.63L383.28 4.63L383.28 4.63Q383.24 4.30 382.91 4.13L382.91 4.13L382.91 4.13Q382.58 3.96 382.21 3.95L382.21 3.95L382.21 3.95Q381.91 3.93 381.91 3.70L381.91 3.70L381.91 3.70Q381.91 3.46 382.31 3.46L382.31 3.46L382.31 3.46Q382.45 3.46 382.95 3.50L382.95 3.50L382.95 3.50Q383.45 3.54 383.89 3.54L383.89 3.54L383.89 3.54Q384.16 3.54 384.36 3.54L384.36 3.54L384.36 3.54Q384.55 3.53 385.03 3.53L385.03 3.53L385.03 3.53Q385.42 3.53 385.42 3.71L385.42 3.71L385.42 3.71Q385.42 3.84 384.78 4.10L384.78 4.10L384.78 4.10Q384.48 4.21 384.48 5.05L384.48 5.05L384.48 5.70L384.48 5.70Q384.48 8.02 384.48 9.50L384.48 9.50L384.48 9.50Q384.47 10.98 384.47 11.40L384.47 11.40L384.47 11.40Q384.47 11.82 384.46 12.07L384.46 12.07L384.46 12.07Q384.45 12.32 384.45 12.47L384.45 12.47L384.45 12.47Q384.45 14.07 383.59 15.10L383.59 15.10L383.59 15.10Q382.73 16.13 381.56 16.13L381.56 16.13L381.56 16.13Q381.00 16.13 381.00 15.60Z"></path></g></svg>